<svg width="16" height="16" viewBox="0 0 16 16" fill="none" xmlns="http://www.w3.org/2000/svg">
<path opacity="0.29" d="M13.1427 8.00012C12.8271 8.00012 12.5712 8.25595 12.5712 8.57155V14.2857C12.5712 14.6013 12.3154 14.8572 11.9998 14.8572H1.71426C1.39866 14.8572 1.14283 14.6013 1.14283 14.2857V2.85733C1.14283 2.54173 1.39866 2.2859 1.71426 2.2859H8.57131C8.88691 2.2859 9.14275 2.03006 9.14275 1.71447C9.14275 1.39887 8.88691 1.14307 8.57131 1.14307H1.71426C0.767501 1.14307 0 1.91057 0 2.85733V14.2857C0 15.2325 0.767501 16 1.71426 16H11.9998C12.9466 16 13.7141 15.2325 13.7141 14.2857V8.57152C13.7141 8.25595 13.4583 8.00012 13.1427 8.00012Z" fill="#003ECB"/>
<path opacity="0.29" d="M15.3594 0.641026C14.9491 0.230674 14.3926 0.000186218 13.8123 0.000253181C13.2317 -0.0014209 12.6747 0.229469 12.2655 0.641394L4.7387 8.16754C4.67625 8.23046 4.62915 8.30693 4.60099 8.39097L3.45815 11.8195C3.35841 12.1189 3.5203 12.4425 3.81972 12.5422C3.87781 12.5615 3.93865 12.5714 3.99986 12.5715C4.06119 12.5714 4.12216 12.5615 4.18042 12.5424L7.60896 11.3995C7.69316 11.3714 7.76967 11.3241 7.83238 11.2613L15.3592 3.7345C16.2134 2.88032 16.2135 1.49531 15.3594 0.641026Z" fill="#003ECB"/>
</svg>
