<svg width="21" height="21" viewBox="0 0 21 21" fill="none" xmlns="http://www.w3.org/2000/svg">
<path d="M19.4694 4.51898H13.9106L12.7881 2.63326C12.6783 2.4489 12.4797 2.33594 12.2651 2.33594H8.73476C8.52019 2.33594 8.32147 2.4489 8.21172 2.63326L7.08925 4.51898H5.26517V4.10336C5.26517 3.76722 4.99265 3.4947 4.65651 3.4947H2.40438C2.06817 3.4947 1.79572 3.76722 1.79572 4.10336V4.51898H1.53058C0.685199 4.51898 0 5.20425 0 6.04949V17.1312C0 17.9765 0.685198 18.6617 1.53051 18.6617H19.4694C20.3147 18.6617 20.9999 17.9765 20.9999 17.1312V6.04949C21 5.20425 20.3147 4.51898 19.4694 4.51898ZM10.4999 15.9469C8.09384 15.9469 6.14335 13.9964 6.14335 11.5903C6.14335 9.18424 8.09384 7.23367 10.4999 7.23367C12.906 7.23367 14.8565 9.18424 14.8565 11.5903C14.8565 13.9964 12.906 15.9469 10.4999 15.9469ZM18.5144 7.67443H16.6072C16.2711 7.67443 15.9985 7.40191 15.9985 7.0657C15.9985 6.72949 16.2711 6.45697 16.6072 6.45697H18.5144C18.8507 6.45697 19.1232 6.72949 19.1232 7.0657C19.1232 7.40191 18.8506 7.67443 18.5144 7.67443Z" fill="#7B838B"/>
<path d="M10.4999 14.6339C12.1808 14.6339 13.5434 13.2713 13.5434 11.5904C13.5434 9.90951 12.1808 8.54688 10.4999 8.54688C8.81904 8.54688 7.45641 9.90951 7.45641 11.5904C7.45641 13.2713 8.81904 14.6339 10.4999 14.6339Z" fill="#7B838B"/>
</svg>
