<svg width="24" height="24" viewBox="0 0 24 24" fill="none" xmlns="http://www.w3.org/2000/svg">
<g clip-path="url(#clip0)">
<path d="M14.1988 12.0195L23.5439 2.67406C24.1521 2.06618 24.1521 1.08332 23.5439 0.475441C22.936 -0.132439 21.9532 -0.132439 21.3453 0.475441L11.9999 9.82085L2.65475 0.475441C2.04658 -0.132439 1.06401 -0.132439 0.456124 0.475441C-0.152041 1.08332 -0.152041 2.06618 0.456124 2.67406L9.80126 12.0195L0.456124 21.3649C-0.152041 21.9728 -0.152041 22.9556 0.456124 23.5635C0.759068 23.8667 1.15739 24.019 1.55543 24.019C1.95348 24.019 2.35152 23.8667 2.65475 23.5635L11.9999 14.2181L21.3453 23.5635C21.6485 23.8667 22.0466 24.019 22.4446 24.019C22.8427 24.019 23.2407 23.8667 23.5439 23.5635C24.1521 22.9556 24.1521 21.9728 23.5439 21.3649L14.1988 12.0195Z" fill="#C4C4C4"/>
</g>
<defs>
<clipPath id="clip0">
<rect width="24" height="24" fill="white"/>
</clipPath>
</defs>
</svg>
