<?xml version="1.0"?>
<svg xmlns="http://www.w3.org/2000/svg" xmlns:xlink="http://www.w3.org/1999/xlink" xmlns:svgjs="http://svgjs.com/svgjs" version="1.1" width="512" height="512" x="0" y="0" viewBox="0 0 512 512" style="enable-background:new 0 0 512 512" xml:space="preserve" class=""><g><g xmlns="http://www.w3.org/2000/svg"><path d="m496 464h-8v-264a8 8 0 0 0 -8-8h-88v-176a8 8 0 0 0 -8-8h-256a8 8 0 0 0 -8 8v96h-88a8 8 0 0 0 -8 8v344h-8a8 8 0 0 0 -8 8v24a8 8 0 0 0 8 8h480a8 8 0 0 0 8-8v-24a8 8 0 0 0 -8-8zm-104-256h80v256h-80zm-256-184h240v440h-56v-120a8 8 0 0 0 -8-8h-112a8 8 0 0 0 -8 8v120h-56zm168 328v112h-40v-112zm-56 0v112h-40v-112zm-208-224h80v336h-80zm448 360h-464v-8h464z" fill="#003ecb" data-original="#000000" style="" class=""/><path d="m104 136h-48a8 8 0 0 0 -8 8v48a8 8 0 0 0 8 8h48a8 8 0 0 0 8-8v-48a8 8 0 0 0 -8-8zm-8 48h-32v-32h32z" fill="#003ecb" data-original="#000000" style="" class=""/><path d="m104 216h-48a8 8 0 0 0 -8 8v48a8 8 0 0 0 8 8h48a8 8 0 0 0 8-8v-48a8 8 0 0 0 -8-8zm-8 48h-32v-32h32z" fill="#003ecb" data-original="#000000" style="" class=""/><path d="m104 296h-48a8 8 0 0 0 -8 8v48a8 8 0 0 0 8 8h48a8 8 0 0 0 8-8v-48a8 8 0 0 0 -8-8zm-8 48h-32v-32h32z" fill="#003ecb" data-original="#000000" style="" class=""/><path d="m408 280h48a8 8 0 0 0 8-8v-48a8 8 0 0 0 -8-8h-48a8 8 0 0 0 -8 8v48a8 8 0 0 0 8 8zm8-48h32v32h-32z" fill="#003ecb" data-original="#000000" style="" class=""/><path d="m408 360h48a8 8 0 0 0 8-8v-48a8 8 0 0 0 -8-8h-48a8 8 0 0 0 -8 8v48a8 8 0 0 0 8 8zm8-48h32v32h-32z" fill="#003ecb" data-original="#000000" style="" class=""/><path d="m160 312h192a8 8 0 0 0 8-8v-64a8 8 0 0 0 -8-8h-192a8 8 0 0 0 -8 8v64a8 8 0 0 0 8 8zm88-16h-32v-48h32zm16-48h32v48h-32zm80 48h-32v-48h32zm-176-48h32v48h-32z" fill="#003ecb" data-original="#000000" style="" class=""/><path d="m160 216h192a8 8 0 0 0 8-8v-64a8 8 0 0 0 -8-8h-192a8 8 0 0 0 -8 8v64a8 8 0 0 0 8 8zm88-16h-32v-48h32zm16-48h32v48h-32zm80 48h-32v-48h32zm-176-48h32v48h-32z" fill="#003ecb" data-original="#000000" style="" class=""/><path d="m160 120h192a8 8 0 0 0 8-8v-64a8 8 0 0 0 -8-8h-192a8 8 0 0 0 -8 8v64a8 8 0 0 0 8 8zm88-16h-32v-48h32zm16-48h32v48h-32zm80 48h-32v-48h32zm-176-48h32v48h-32z" fill="#003ecb" data-original="#000000" style="" class=""/></g></g></svg>
