<svg width="19" height="19" viewBox="0 0 19 19" fill="none" xmlns="http://www.w3.org/2000/svg">
<g clip-path="url(#clip0)">
<path d="M7.87664 14.4821L5.63778 16.721C4.7096 17.6492 3.20647 17.6492 2.27907 16.7212C1.35148 15.7936 1.35148 14.2903 2.27888 13.3629L6.75738 8.88439C7.68478 7.95694 9.18806 7.95694 10.1155 8.88439C10.4246 9.19355 10.9259 9.19355 11.2351 8.88439C11.5442 8.57523 11.5442 8.07395 11.2351 7.76479C9.6893 6.21903 7.18354 6.21903 5.63778 7.76479L1.15932 12.2433C-0.386441 13.789 -0.386441 16.2948 1.15932 17.8405C2.7049 19.3871 5.21084 19.3871 6.75742 17.8405L8.99627 15.6017C9.30543 15.2925 9.30543 14.7912 8.99627 14.4821C8.68711 14.1729 8.1858 14.1729 7.87664 14.4821Z" fill="black" fill-opacity="0.5"/>
<path d="M17.8409 1.15932C16.2951 -0.386441 13.7885 -0.386441 12.2428 1.15932L9.55663 3.84546C9.24747 4.15462 9.24747 4.6559 9.55663 4.96506C9.86579 5.27422 10.3671 5.27422 10.6762 4.96506L13.3624 2.27892C14.2898 1.35148 15.7938 1.35148 16.7213 2.27892C17.6487 3.20632 17.6487 4.7096 16.7213 5.637L11.7955 10.5628C10.868 11.4903 9.36481 11.4903 8.4374 10.5628C8.12824 10.2537 7.62697 10.2537 7.31781 10.5628C7.00865 10.872 7.00865 11.3733 7.31781 11.6824C8.86357 13.2282 11.3693 13.2282 12.9151 11.6824L17.8409 6.75664C19.3866 5.21087 19.3866 2.70509 17.8409 1.15932Z" fill="black" fill-opacity="0.5"/>
</g>
<defs>
<clipPath id="clip0">
<rect width="19" height="19" fill="white"/>
</clipPath>
</defs>
</svg>
