<svg width="218" height="181" viewBox="0 0 218 181" fill="none" xmlns="http://www.w3.org/2000/svg">
<path d="M204.977 166.641H188.409V166.766H204.977V166.641Z" fill="#EBEBEB"/>
<path d="M145.609 168.005H141.261V168.13H145.609V168.005Z" fill="#EBEBEB"/>
<path d="M187.908 161.992H178.309V162.117H187.908V161.992Z" fill="#EBEBEB"/>
<path d="M35.3935 162.834H32.2271V162.959H35.3935V162.834Z" fill="#EBEBEB"/>
<path d="M92.5492 164.95H45.687V165.076H92.5492V164.95Z" fill="#EBEBEB"/>
<path d="M20.4067 17.1802H19.5062V87.5422H20.4067V17.1802Z" fill="#E0E0E0"/>
<path d="M76.4555 17.1802H75.5551V87.5422H76.4555V17.1802Z" fill="#E0E0E0"/>
<path d="M79.9827 21.6091H15.9774L14.6268 18.4512H81.3333L79.9827 21.6091Z" fill="#EBEBEB"/>
<path d="M79.9827 25.9436H15.9774L14.6268 22.7856H81.3333L79.9827 25.9436Z" fill="#EBEBEB"/>
<path d="M79.9827 30.281H15.9774L14.6268 27.123H81.3333L79.9827 30.281Z" fill="#EBEBEB"/>
<path d="M79.9827 34.6184H15.9774L14.6268 31.4604H81.3333L79.9827 34.6184Z" fill="#EBEBEB"/>
<path d="M79.9827 38.9529H15.9774L14.6268 35.7949H81.3333L79.9827 38.9529Z" fill="#EBEBEB"/>
<path d="M79.9827 43.2873H15.9774L14.6268 40.1294H81.3333L79.9827 43.2873Z" fill="#EBEBEB"/>
<path d="M79.9827 47.6218H15.9774L14.6268 44.4639H81.3333L79.9827 47.6218Z" fill="#EBEBEB"/>
<path d="M79.9827 51.9621H15.9774L14.6268 48.8042H81.3333L79.9827 51.9621Z" fill="#EBEBEB"/>
<path d="M79.9827 56.2878H15.9774L14.6268 53.1299H81.3333L79.9827 56.2878Z" fill="#EBEBEB"/>
<path d="M79.9827 60.6252H15.9774L14.6268 57.4673H81.3333L79.9827 60.6252Z" fill="#EBEBEB"/>
<path d="M79.9827 64.9597H15.9774L14.6268 61.8018H81.3333L79.9827 64.9597Z" fill="#EBEBEB"/>
<path d="M79.9827 69.2937H15.9774L14.6268 66.1357H81.3333L79.9827 69.2937Z" fill="#EBEBEB"/>
<path d="M79.9827 73.6345H15.9774L14.6268 70.4766H81.3333L79.9827 73.6345Z" fill="#EBEBEB"/>
<path d="M79.9827 77.969H15.9774L14.6268 74.811H81.3333L79.9827 77.969Z" fill="#EBEBEB"/>
<path d="M79.9827 82.3064H15.9774L14.6268 79.1484H81.3333L79.9827 82.3064Z" fill="#EBEBEB"/>
<path d="M79.9827 86.6409H15.9774L14.6268 83.4829H81.3333L79.9827 86.6409Z" fill="#EBEBEB"/>
<path d="M81.3333 86.6392H14.6268V88.4437H81.3333V86.6392Z" fill="#E0E0E0"/>
<path d="M83.6603 14.4971H12.3016V18.7077H83.6603V14.4971Z" fill="#E0E0E0"/>
<path d="M13.0296 56.8826C12.8372 56.8826 12.6527 56.8061 12.5167 56.6698C12.3807 56.5335 12.3043 56.3486 12.3043 56.1558V31.594C12.3043 31.4013 12.3807 31.2164 12.5167 31.0801C12.6527 30.9438 12.8372 30.8672 13.0296 30.8672C13.1249 30.8672 13.2192 30.886 13.3072 30.9225C13.3952 30.959 13.4751 31.0126 13.5425 31.0801C13.6099 31.1476 13.6633 31.2277 13.6997 31.3159C13.7362 31.4041 13.7549 31.4986 13.7549 31.594V56.1558C13.7549 56.3486 13.6785 56.5335 13.5425 56.6698C13.4065 56.8061 13.222 56.8826 13.0296 56.8826Z" fill="#E0E0E0"/>
<path d="M13.2959 17.8633H12.7712V32.45H13.2959V17.8633Z" fill="#E0E0E0"/>
<path d="M197.684 29.332H143.713V157.695H197.684V29.332Z" fill="#EBEBEB"/>
<path d="M195.387 31.6582H146.004V157.7H195.387V31.6582Z" fill="#F0F0F0"/>
<path d="M191.91 104.564H149.74V150.726H191.91V104.564Z" fill="#FAFAFA"/>
<path d="M191.91 37.3477H149.74V83.5088H191.91V37.3477Z" fill="#FAFAFA"/>
<path d="M155.048 88.1504H150.376V100.351H155.048V88.1504Z" fill="#EBEBEB"/>
<path d="M155.048 100.35H155.969V88.1494H155.048V100.35Z" fill="#E0E0E0"/>
<path d="M153.502 92.9427C153.502 93.3334 153.386 93.7152 153.169 94.04C152.953 94.3648 152.645 94.6179 152.285 94.7674C151.925 94.9169 151.528 94.956 151.146 94.8798C150.764 94.8036 150.413 94.6155 150.137 94.3393C149.861 94.0631 149.674 93.7111 149.598 93.328C149.522 92.9449 149.561 92.5478 149.71 92.187C149.859 91.8261 150.112 91.5176 150.436 91.3006C150.76 91.0836 151.141 90.9678 151.531 90.9678C152.053 90.9678 152.555 91.1758 152.924 91.5462C153.294 91.9166 153.502 92.4189 153.502 92.9427Z" fill="#E0E0E0"/>
<path d="M153.129 96.3574H152.113V98.8287H153.129V96.3574Z" fill="#E0E0E0"/>
<path d="M157.924 92.9426C157.924 93.6143 152.106 94.1556 151.421 94.1556C151.1 94.1556 150.792 94.0278 150.565 93.8003C150.338 93.5728 150.21 93.2643 150.21 92.9426C150.21 92.6209 150.338 92.3123 150.565 92.0848C150.792 91.8573 151.1 91.7295 151.421 91.7295C152.106 91.7095 157.924 92.2759 157.924 92.9426Z" fill="#F0F0F0"/>
<path d="M170.056 25.0372C175.783 25.0372 180.426 20.3849 180.426 14.646C180.426 8.90716 175.783 4.25488 170.056 4.25488C164.328 4.25488 159.686 8.90716 159.686 14.646C159.686 20.3849 164.328 25.0372 170.056 25.0372Z" fill="#E0E0E0"/>
<path d="M179.605 15.8767C180.523 10.2119 176.684 4.87437 171.031 3.95486C165.378 3.03534 160.051 6.88209 159.134 12.5468C158.216 18.2115 162.055 23.5491 167.708 24.4686C173.361 25.3882 178.688 21.5414 179.605 15.8767Z" fill="#EBEBEB"/>
<path opacity="0.8" d="M177.686 14.277C177.686 15.9267 177.198 17.5394 176.283 18.911C175.368 20.2827 174.068 21.3518 172.547 21.9831C171.026 22.6144 169.353 22.7796 167.738 22.4577C166.123 22.1359 164.64 21.3415 163.476 20.175C162.312 19.0085 161.519 17.5223 161.198 15.9043C160.877 14.2863 161.042 12.6092 161.672 11.0851C162.302 9.56095 163.369 8.25826 164.737 7.34174C166.106 6.42522 167.716 5.93604 169.362 5.93604C171.57 5.93604 173.687 6.81481 175.248 8.37905C176.809 9.94329 177.686 12.0649 177.686 14.277Z" fill="white"/>
<path d="M168.911 15.0671C168.752 14.9082 168.663 14.6927 168.663 14.468C168.663 14.2434 168.752 14.0279 168.911 13.869C169.071 13.7126 169.285 13.625 169.509 13.625C169.732 13.625 169.947 13.7126 170.106 13.869C170.185 13.9476 170.248 14.041 170.291 14.1439C170.334 14.2468 170.356 14.3572 170.356 14.4688C170.357 14.5803 170.335 14.6908 170.292 14.7939C170.25 14.897 170.188 14.9907 170.109 15.0696C170.03 15.1484 169.937 15.211 169.834 15.2535C169.731 15.2961 169.621 15.3179 169.509 15.3177C169.398 15.3175 169.288 15.2952 169.185 15.2522C169.082 15.2092 168.989 15.1463 168.911 15.0671Z" fill="#E0E0E0"/>
<path d="M169.354 14.1802L174.271 14.0298L174.286 14.5411L169.834 14.6764L169.354 22.4359L168.848 22.4059L169.354 14.1802Z" fill="#E0E0E0"/>
<path d="M104.98 180.936C158.547 180.936 201.971 178.395 201.971 175.262C201.971 172.128 158.547 169.587 104.98 169.587C51.4135 169.587 7.9892 172.128 7.9892 175.262C7.9892 178.395 51.4135 180.936 104.98 180.936Z" fill="#F5F5F5"/>
<path d="M22.9385 169.698C22.9385 169.527 21.1677 152.444 25.0795 137.913L25.5798 138.043C21.6979 152.484 23.4388 169.477 23.4388 169.647L22.9385 169.698Z" fill="#263238"/>
<path d="M27.1799 141.597C27.1799 141.597 21.7923 151.622 22.8678 163.437C22.8678 163.437 25.1089 148.92 27.1799 141.597Z" fill="#003ECB"/>
<path d="M16.4692 136.636C16.4692 136.636 24.333 147.719 22.9723 161.869C22.9623 161.884 19.9059 144.089 16.4692 136.636Z" fill="#003ECB"/>
<path d="M22.9388 165.286C22.9388 165.286 24.6397 150.654 15.6054 146.429C15.5804 146.429 20.3976 149.998 22.9388 165.286Z" fill="#003ECB"/>
<path d="M23.863 138.138L23.6979 138.168C23.6379 138.179 23.5808 138.203 23.5304 138.237C23.48 138.271 23.4374 138.316 23.4053 138.368C23.3732 138.42 23.3524 138.478 23.3442 138.539C23.336 138.599 23.3406 138.661 23.3577 138.72L23.5578 139.447C23.5779 139.52 23.6167 139.587 23.6705 139.64C23.7243 139.694 23.7912 139.733 23.8646 139.753C23.9379 139.772 24.0151 139.773 24.0886 139.753C24.162 139.734 24.2291 139.695 24.2832 139.642L24.5533 139.381C24.606 139.331 24.6704 139.295 24.7405 139.276C24.8107 139.257 24.8845 139.255 24.9553 139.271C25.0262 139.288 25.0919 139.322 25.1465 139.37C25.2012 139.418 25.2432 139.479 25.2686 139.547L25.6338 140.549C25.6556 140.61 25.6906 140.665 25.7363 140.711C25.782 140.757 25.8373 140.791 25.8981 140.813C25.9589 140.835 26.0237 140.842 26.0879 140.836C26.152 140.829 26.2139 140.808 26.2691 140.775L27.1095 140.274C27.1657 140.24 27.2136 140.194 27.2496 140.139C27.2856 140.084 27.3088 140.022 27.3174 139.957C27.3261 139.892 27.32 139.826 27.2996 139.763C27.2792 139.701 27.245 139.644 27.1995 139.597L27.0645 139.457C27.0069 139.395 26.9682 139.318 26.9531 139.235C26.938 139.151 26.9471 139.066 26.9792 138.987C27.0114 138.909 27.0653 138.842 27.1345 138.794C27.2037 138.745 27.2853 138.718 27.3696 138.715H28.1C28.1618 138.713 28.2225 138.699 28.2783 138.672C28.334 138.645 28.3833 138.607 28.4231 138.559C28.4629 138.512 28.4921 138.456 28.5088 138.397C28.5255 138.337 28.5294 138.275 28.5202 138.213L28.4401 137.587C28.4314 137.518 28.4063 137.452 28.367 137.395C28.3276 137.337 28.2752 137.29 28.214 137.257C28.1528 137.224 28.0846 137.207 28.0152 137.206C27.9457 137.204 27.877 137.22 27.8148 137.251L27.7648 137.276C27.6842 137.313 27.5943 137.325 27.5068 137.31C27.4193 137.296 27.3383 137.255 27.2745 137.193C27.2107 137.131 27.167 137.051 27.1491 136.964C27.1313 136.877 27.1401 136.787 27.1745 136.705L27.4146 136.153C27.4416 136.091 27.4537 136.023 27.4501 135.956C27.4464 135.888 27.4271 135.822 27.3935 135.763C27.36 135.705 27.3133 135.654 27.2571 135.617C27.2008 135.579 27.1366 135.555 27.0695 135.547L26.2941 135.441C26.233 135.432 26.1706 135.436 26.1111 135.453C26.0516 135.47 25.9964 135.499 25.949 135.539C25.9017 135.579 25.8634 135.628 25.8367 135.684C25.8099 135.74 25.7953 135.801 25.7939 135.862C25.7894 135.958 25.7542 136.049 25.6938 136.122C25.6333 136.196 25.5508 136.247 25.4585 136.27C25.3662 136.293 25.2691 136.285 25.1816 136.247C25.0942 136.21 25.0212 136.145 24.9735 136.063L24.8734 135.883C24.8406 135.825 24.7952 135.776 24.7407 135.738C24.6862 135.701 24.6239 135.676 24.5586 135.666C24.4932 135.656 24.4264 135.66 24.3631 135.68C24.2999 135.699 24.2418 135.732 24.1931 135.777L23.6179 136.319C23.5742 136.36 23.5395 136.41 23.5158 136.465C23.492 136.52 23.4798 136.579 23.4798 136.639C23.4798 136.7 23.492 136.759 23.5158 136.814C23.5395 136.869 23.5742 136.919 23.6179 136.96L24.0781 137.386C24.1364 137.442 24.1784 137.512 24.1995 137.59C24.2207 137.668 24.2201 137.75 24.198 137.828C24.1758 137.905 24.1328 137.975 24.0738 138.03C24.0147 138.085 23.9418 138.122 23.863 138.138Z" fill="#003ECB"/>
<path opacity="0.7" d="M23.863 138.138L23.6979 138.168C23.6379 138.179 23.5808 138.203 23.5304 138.237C23.48 138.271 23.4374 138.316 23.4053 138.368C23.3732 138.42 23.3524 138.478 23.3442 138.539C23.336 138.599 23.3406 138.661 23.3577 138.72L23.5578 139.447C23.5779 139.52 23.6167 139.587 23.6705 139.64C23.7243 139.694 23.7912 139.733 23.8646 139.753C23.9379 139.772 24.0151 139.773 24.0886 139.753C24.162 139.734 24.2291 139.695 24.2832 139.642L24.5533 139.381C24.606 139.331 24.6704 139.295 24.7405 139.276C24.8107 139.257 24.8845 139.255 24.9553 139.271C25.0262 139.288 25.0919 139.322 25.1465 139.37C25.2012 139.418 25.2432 139.479 25.2686 139.547L25.6338 140.549C25.6556 140.61 25.6906 140.665 25.7363 140.711C25.782 140.757 25.8373 140.791 25.8981 140.813C25.9589 140.835 26.0237 140.842 26.0879 140.836C26.152 140.829 26.2139 140.808 26.2691 140.775L27.1095 140.274C27.1657 140.24 27.2136 140.194 27.2496 140.139C27.2856 140.084 27.3088 140.022 27.3174 139.957C27.3261 139.892 27.32 139.826 27.2996 139.763C27.2792 139.701 27.245 139.644 27.1995 139.597L27.0645 139.457C27.0069 139.395 26.9682 139.318 26.9531 139.235C26.938 139.151 26.9471 139.066 26.9792 138.987C27.0114 138.909 27.0653 138.842 27.1345 138.794C27.2037 138.745 27.2853 138.718 27.3696 138.715H28.1C28.1618 138.713 28.2225 138.699 28.2783 138.672C28.334 138.645 28.3833 138.607 28.4231 138.559C28.4629 138.512 28.4921 138.456 28.5088 138.397C28.5255 138.337 28.5294 138.275 28.5202 138.213L28.4401 137.587C28.4314 137.518 28.4063 137.452 28.367 137.395C28.3276 137.337 28.2752 137.29 28.214 137.257C28.1528 137.224 28.0846 137.207 28.0152 137.206C27.9457 137.204 27.877 137.22 27.8148 137.251L27.7648 137.276C27.6842 137.313 27.5943 137.325 27.5068 137.31C27.4193 137.296 27.3383 137.255 27.2745 137.193C27.2107 137.131 27.167 137.051 27.1491 136.964C27.1313 136.877 27.1401 136.787 27.1745 136.705L27.4146 136.153C27.4416 136.091 27.4537 136.023 27.4501 135.956C27.4464 135.888 27.4271 135.822 27.3935 135.763C27.36 135.705 27.3133 135.654 27.2571 135.617C27.2008 135.579 27.1366 135.555 27.0695 135.547L26.2941 135.441C26.233 135.432 26.1706 135.436 26.1111 135.453C26.0516 135.47 25.9964 135.499 25.949 135.539C25.9017 135.579 25.8634 135.628 25.8367 135.684C25.8099 135.74 25.7953 135.801 25.7939 135.862C25.7894 135.958 25.7542 136.049 25.6938 136.122C25.6333 136.196 25.5508 136.247 25.4585 136.27C25.3662 136.293 25.2691 136.285 25.1816 136.247C25.0942 136.21 25.0212 136.145 24.9735 136.063L24.8734 135.883C24.8406 135.825 24.7952 135.776 24.7407 135.738C24.6862 135.701 24.6239 135.676 24.5586 135.666C24.4932 135.656 24.4264 135.66 24.3631 135.68C24.2999 135.699 24.2418 135.732 24.1931 135.777L23.6179 136.319C23.5742 136.36 23.5395 136.41 23.5158 136.465C23.492 136.52 23.4798 136.579 23.4798 136.639C23.4798 136.7 23.492 136.759 23.5158 136.814C23.5395 136.869 23.5742 136.919 23.6179 136.96L24.0781 137.386C24.1364 137.442 24.1784 137.512 24.1995 137.59C24.2207 137.668 24.2201 137.75 24.198 137.828C24.1758 137.905 24.1328 137.975 24.0738 138.03C24.0147 138.085 23.9418 138.122 23.863 138.138Z" fill="white"/>
<path d="M24.5842 161.523L25.2145 156.635H19.7119L20.3372 161.523C19.0538 161.966 17.9401 162.798 17.1511 163.905C16.3621 165.012 15.9371 166.338 15.9351 167.698C15.9841 169.209 16.3488 170.693 17.0056 172.054C17.3174 172.709 17.8091 173.262 18.4231 173.647C19.037 174.032 19.7479 174.234 20.4723 174.23H24.4742C25.1981 174.235 25.9086 174.034 26.5219 173.648C27.1352 173.263 27.6258 172.71 27.9358 172.054C28.5963 170.694 28.9628 169.21 29.0113 167.698C29.0113 166.334 28.5841 165.004 27.7898 163.896C26.9956 162.788 25.8744 161.958 24.5842 161.523Z" fill="#003ECB"/>
<path opacity="0.7" d="M24.5842 161.523L25.2145 156.635H19.7119L20.3372 161.523C19.0538 161.966 17.9401 162.798 17.1511 163.905C16.3621 165.012 15.9371 166.338 15.9351 167.698C15.9841 169.209 16.3488 170.693 17.0056 172.054C17.3174 172.709 17.8091 173.262 18.4231 173.647C19.037 174.032 19.7479 174.234 20.4723 174.23H24.4742C25.1981 174.235 25.9086 174.034 26.5219 173.648C27.1352 173.263 27.6258 172.71 27.9358 172.054C28.5963 170.694 28.9628 169.21 29.0113 167.698C29.0113 166.334 28.5841 165.004 27.7898 163.896C26.9956 162.788 25.8744 161.958 24.5842 161.523Z" fill="white"/>
<path d="M133.961 114.022V173.928H135.592L137.043 117.085H138.964V114.022H133.961Z" fill="#263238"/>
<path d="M135.408 173.926H136.963L138.964 114.025H136.908L135.408 173.926Z" fill="#263238"/>
<g opacity="0.3">
<path opacity="0.3" d="M135.707 173.927H136.962L138.823 117.154H137.067L135.707 173.927Z" fill="white"/>
</g>
<path opacity="0.5" d="M133.961 114.022V173.928H135.592L137.043 117.085H138.964V114.022H133.961Z" fill="white"/>
<path d="M36.0314 173.926H37.5871L39.588 114.105H37.5321L36.0314 173.926Z" fill="#263238"/>
<path opacity="0.3" d="M36.0314 173.926H37.5871L39.588 114.105H37.5321L36.0314 173.926Z" fill="white"/>
<path d="M61.0974 114.105V173.926H59.4517L57.5157 117.008H37.6614L36.2107 173.926H34.5849V114.105H61.0974Z" fill="#263238"/>
<path opacity="0.5" d="M61.0974 114.105V173.926H59.4517L57.5157 117.008H37.6614L36.2107 173.926H34.5849V114.105H61.0974Z" fill="white"/>
<path d="M61.0978 173.926H62.6486L63.1488 114.105H61.0978V173.926Z" fill="#263238"/>
<path opacity="0.3" d="M61.0978 173.926H62.6486L63.1488 114.105H61.0978V173.926Z" fill="white"/>
<path d="M138.963 114.105V117.013H156.891L158.827 173.926H160.473V114.105H138.963Z" fill="#263238"/>
<path opacity="0.5" d="M138.963 114.105V117.013H156.891L158.827 173.926H160.473V114.105H138.963Z" fill="white"/>
<path d="M160.474 173.926H162.03L162.53 114.105H160.474V173.926Z" fill="#263238"/>
<g opacity="0.3">
<path opacity="0.3" d="M160.473 173.926H162.029L162.529 114.105H160.473V173.926Z" fill="white"/>
</g>
<path d="M62.3782 114.085L165.252 114.085V110.24L62.3782 110.24V114.085Z" fill="#263238"/>
<path opacity="0.8" d="M62.3782 114.085L165.252 114.085V110.24L62.3782 110.24V114.085Z" fill="white"/>
<path d="M31.8628 114.085H64.7683V110.24H31.8628V114.085Z" fill="#263238"/>
<path opacity="0.6" d="M31.8628 114.085H64.7683V110.24H31.8628V114.085Z" fill="white"/>
<path d="M54.7501 109.181V109.712C54.7501 109.845 54.8028 109.973 54.8966 110.067C54.9904 110.161 55.1176 110.214 55.2503 110.214H74.2593C74.3805 110.214 74.4968 110.166 74.583 110.08C74.6691 109.995 74.7182 109.879 74.7195 109.758V109.256C74.7195 109.134 74.671 109.017 74.5847 108.93C74.4984 108.844 74.3813 108.795 74.2593 108.795H69.5321C69.4069 108.795 69.2833 108.768 69.1696 108.716C69.056 108.663 68.955 108.587 68.8737 108.492C68.7924 108.396 68.7326 108.284 68.6986 108.164C68.6646 108.043 68.6571 107.916 68.6766 107.793L70.3374 98.1885H59.5323L54.9051 108.444C54.8051 108.677 54.7524 108.928 54.7501 109.181Z" fill="#263238"/>
<path opacity="0.2" d="M74.7247 109.254V109.755C74.7247 109.815 74.713 109.874 74.6901 109.93C74.6672 109.985 74.6337 110.035 74.5914 110.077C74.5491 110.12 74.499 110.153 74.4437 110.176C74.3885 110.199 74.3293 110.211 74.2695 110.211H55.2606C55.1279 110.211 55.0006 110.158 54.9068 110.064C54.813 109.97 54.7603 109.843 54.7603 109.71V109.179C54.7621 109.037 54.7789 108.896 54.8103 108.757C54.8389 108.639 54.8774 108.523 54.9254 108.412L59.5526 98.1558H70.3577L68.6819 107.75C68.6746 107.806 68.6746 107.864 68.6819 107.92C68.6857 108.116 68.7557 108.304 68.8802 108.454C69.0047 108.604 69.1764 108.708 69.3672 108.747C69.427 108.755 69.4875 108.755 69.5473 108.747H74.2795C74.3429 108.748 74.4054 108.763 74.463 108.789C74.5205 108.816 74.5719 108.854 74.6138 108.902C74.6557 108.95 74.6873 109.005 74.7064 109.066C74.7255 109.127 74.7317 109.191 74.7247 109.254Z" fill="white"/>
<path d="M54.2984 108.417L58.9256 98.1616H59.5359L54.9087 108.417C54.803 108.659 54.7485 108.92 54.7486 109.184V109.716C54.7486 109.849 54.8013 109.976 54.8951 110.07C54.9889 110.164 55.1162 110.217 55.2488 110.217H54.6385C54.5059 110.217 54.3786 110.164 54.2848 110.07C54.191 109.976 54.1383 109.849 54.1383 109.716V109.184C54.1383 108.92 54.1928 108.659 54.2984 108.417Z" fill="#263238"/>
<path opacity="0.3" d="M59.5367 98.1616H70.3418L69.9166 100.613H58.4312L59.5367 98.1616Z" fill="black"/>
<path d="M88.4729 99.2294H42.3761C41.929 99.2294 41.5002 99.0514 41.1841 98.7346C40.8679 98.4178 40.6903 97.9882 40.6903 97.5401V64.1712C40.6903 63.7232 40.8679 63.2935 41.1841 62.9767C41.5002 62.6599 41.929 62.4819 42.3761 62.4819H88.4729C88.92 62.4819 89.3488 62.6599 89.6649 62.9767C89.9811 63.2935 90.1587 63.7232 90.1587 64.1712V97.5502C90.156 97.9964 89.9773 98.4235 89.6614 98.7382C89.3455 99.0528 88.9183 99.2294 88.4729 99.2294Z" fill="#263238"/>
<g opacity="0.2">
<path opacity="0.2" d="M88.4729 99.2294H42.3761C41.929 99.2294 41.5002 99.0514 41.1841 98.7346C40.8679 98.4178 40.6903 97.9882 40.6903 97.5401V64.1712C40.6903 63.7232 40.8679 63.2935 41.1841 62.9767C41.5002 62.6599 41.929 62.4819 42.3761 62.4819H88.4729C88.92 62.4819 89.3488 62.6599 89.6649 62.9767C89.9811 63.2935 90.1587 63.7232 90.1587 64.1712V97.5502C90.156 97.9964 89.9773 98.4235 89.6614 98.7382C89.3455 99.0528 88.9183 99.2294 88.4729 99.2294Z" fill="white"/>
</g>
<path d="M88.4378 63.5039H42.4061C41.9005 63.5039 41.4907 63.9146 41.4907 64.4212V92.0056C41.4907 92.5122 41.9005 92.9229 42.4061 92.9229H88.4378C88.9434 92.9229 89.3533 92.5122 89.3533 92.0056V64.4212C89.3533 63.9146 88.9434 63.5039 88.4378 63.5039Z" fill="#003ECB"/>
<path opacity="0.6" d="M88.4378 63.5039H42.4061C41.9005 63.5039 41.4907 63.9146 41.4907 64.4212V92.0056C41.4907 92.5122 41.9005 92.9229 42.4061 92.9229H88.4378C88.9434 92.9229 89.3533 92.5122 89.3533 92.0056V64.4212C89.3533 63.9146 88.9434 63.5039 88.4378 63.5039Z" fill="white"/>
<path d="M41.3562 62.4819H42.3567C41.9096 62.4819 41.4808 62.6599 41.1646 62.9767C40.8485 63.2935 40.6709 63.7232 40.6709 64.1712V97.5502C40.6709 97.9982 40.8485 98.4278 41.1646 98.7446C41.4808 99.0614 41.9096 99.2394 42.3567 99.2394H41.3562C40.9091 99.2394 40.4803 99.0614 40.1642 98.7446C39.848 98.4278 39.6704 97.9982 39.6704 97.5502V64.1712C39.6704 63.7232 39.848 63.2935 40.1642 62.9767C40.4803 62.6599 40.9091 62.4819 41.3562 62.4819Z" fill="#003ECB"/>
<path opacity="0.3" d="M41.3562 62.4819H42.3567C41.9096 62.4819 41.4808 62.6599 41.1646 62.9767C40.8485 63.2935 40.6709 63.7232 40.6709 64.1712V97.5502C40.6709 97.9982 40.8485 98.4278 41.1646 98.7446C41.4808 99.0614 41.9096 99.2394 42.3567 99.2394H41.3562C40.9091 99.2394 40.4803 99.0614 40.1642 98.7446C39.848 98.4278 39.6704 97.9982 39.6704 97.5502V64.1712C39.6704 63.7232 39.848 63.2935 40.1642 62.9767C40.4803 62.6599 40.9091 62.4819 41.3562 62.4819Z" fill="white"/>
<g opacity="0.2">
<path opacity="0.2" d="M61.3862 63.5098H59.6153L50.8062 92.9238H52.577L61.3862 63.5098Z" fill="white"/>
<path opacity="0.2" d="M49.016 92.9238L57.8252 63.5098H51.172L42.3629 92.9238H49.016Z" fill="white"/>
</g>
<path opacity="0.2" d="M58.036 109.252V109.753C58.0359 109.882 58.0851 110.006 58.1736 110.099C58.262 110.192 58.383 110.248 58.5112 110.254H74.2687C74.3894 110.254 74.5052 110.206 74.5906 110.121C74.6759 110.035 74.7239 109.919 74.7239 109.798V109.297C74.7239 109.176 74.6761 109.059 74.5909 108.973C74.5056 108.886 74.3899 108.837 74.2687 108.836H69.5364C69.4766 108.843 69.4162 108.843 69.3564 108.836H58.5112C58.3964 108.84 58.2864 108.884 58.1999 108.959C58.1134 109.035 58.0555 109.138 58.036 109.252Z" fill="white"/>
<path opacity="0.2" d="M54.7934 108.755H69.3553C69.164 108.716 68.9918 108.613 68.8671 108.462C68.7425 108.312 68.6729 108.123 68.67 107.928H55.1636L54.7934 108.755Z" fill="black"/>
<path d="M90.867 109.053H92.2477C92.2805 109.054 92.3133 109.049 92.3442 109.038C92.3751 109.026 92.4034 109.009 92.4275 108.987C92.4517 108.964 92.4712 108.938 92.485 108.908C92.4988 108.878 92.5065 108.845 92.5078 108.812V107.479C92.5065 107.446 92.4988 107.414 92.485 107.384C92.4712 107.354 92.4517 107.327 92.4275 107.305C92.4034 107.282 92.3751 107.265 92.3442 107.254C92.3133 107.242 92.2805 107.237 92.2477 107.238H91.2472C91.1909 107.237 91.1356 107.254 91.0896 107.286C91.0436 107.319 91.0094 107.365 90.9921 107.419L90.6069 108.747C90.5971 108.785 90.5966 108.825 90.6055 108.864C90.6143 108.902 90.6323 108.938 90.6578 108.968C90.6833 108.998 90.7156 109.021 90.752 109.036C90.7884 109.051 90.8279 109.057 90.867 109.053Z" fill="#263238"/>
<path d="M88.9751 109.053H90.3507C90.4176 109.056 90.4828 109.032 90.5324 108.987C90.582 108.942 90.612 108.879 90.6158 108.812V107.479C90.612 107.412 90.582 107.349 90.5324 107.304C90.4828 107.259 90.4176 107.236 90.3507 107.238H89.3502C89.294 107.237 89.2387 107.254 89.1927 107.286C89.1467 107.319 89.1124 107.365 89.0951 107.419L88.7049 108.747C88.6947 108.786 88.6942 108.827 88.7036 108.867C88.7129 108.906 88.7318 108.942 88.7585 108.972C88.7852 109.003 88.8189 109.026 88.8567 109.04C88.8945 109.054 88.9351 109.059 88.9751 109.053Z" fill="#263238"/>
<path d="M87.0577 109.053H88.4383C88.4712 109.054 88.504 109.049 88.5348 109.038C88.5657 109.026 88.594 109.009 88.6182 108.987C88.6423 108.964 88.6618 108.938 88.6756 108.908C88.6894 108.878 88.6971 108.845 88.6984 108.812V107.479C88.6971 107.446 88.6894 107.414 88.6756 107.384C88.6618 107.354 88.6423 107.327 88.6182 107.305C88.594 107.282 88.5657 107.265 88.5348 107.254C88.504 107.242 88.4712 107.237 88.4383 107.238H87.4378C87.3815 107.237 87.3263 107.254 87.2802 107.286C87.2342 107.319 87.2 107.365 87.1827 107.419L86.7975 108.747C86.7877 108.785 86.7872 108.825 86.7961 108.864C86.8049 108.902 86.8229 108.938 86.8484 108.968C86.8739 108.998 86.9062 109.021 86.9426 109.036C86.9791 109.051 87.0185 109.057 87.0577 109.053Z" fill="#263238"/>
<path d="M85.1593 109.053H86.535C86.6018 109.056 86.6671 109.032 86.7167 108.987C86.7663 108.942 86.7962 108.879 86.8001 108.812V107.479C86.7962 107.412 86.7663 107.349 86.7167 107.304C86.6671 107.259 86.6018 107.236 86.535 107.238H85.5345C85.4782 107.237 85.4229 107.254 85.3769 107.286C85.3309 107.319 85.2967 107.365 85.2794 107.419L84.8892 108.747C84.879 108.786 84.8785 108.827 84.8878 108.867C84.8972 108.906 84.916 108.942 84.9427 108.972C84.9695 109.003 85.0032 109.026 85.041 109.04C85.0787 109.054 85.1194 109.059 85.1593 109.053Z" fill="#263238"/>
<path d="M83.2526 109.053H84.6333C84.6661 109.054 84.6989 109.049 84.7298 109.038C84.7606 109.026 84.7889 109.009 84.8131 108.987C84.8373 108.964 84.8568 108.938 84.8706 108.908C84.8843 108.878 84.8921 108.845 84.8934 108.812V107.479C84.8921 107.446 84.8843 107.414 84.8706 107.384C84.8568 107.354 84.8373 107.327 84.8131 107.305C84.7889 107.282 84.7606 107.265 84.7298 107.254C84.6989 107.242 84.6661 107.237 84.6333 107.238H83.6328C83.5765 107.237 83.5212 107.254 83.4752 107.286C83.4292 107.319 83.395 107.365 83.3777 107.419L82.9925 108.747C82.9827 108.785 82.9822 108.825 82.991 108.864C82.9999 108.902 83.0178 108.938 83.0433 108.968C83.0688 108.998 83.1012 109.021 83.1376 109.036C83.174 109.051 83.2135 109.057 83.2526 109.053Z" fill="#263238"/>
<path d="M81.3512 109.053H82.7268C82.7937 109.056 82.8589 109.032 82.9085 108.987C82.9581 108.942 82.9881 108.879 82.9919 108.812V107.479C82.9881 107.412 82.9581 107.349 82.9085 107.304C82.8589 107.259 82.7937 107.236 82.7268 107.238H81.7263C81.6701 107.237 81.6148 107.254 81.5687 107.286C81.5227 107.319 81.4885 107.365 81.4712 107.419L81.081 108.747C81.0708 108.786 81.0703 108.827 81.0797 108.867C81.089 108.906 81.1079 108.942 81.1346 108.972C81.1613 109.003 81.195 109.026 81.2328 109.04C81.2706 109.054 81.3112 109.059 81.3512 109.053Z" fill="#263238"/>
<path d="M79.4683 109.053H80.8489C80.8818 109.054 80.9146 109.049 80.9455 109.038C80.9763 109.026 81.0046 109.009 81.0288 108.987C81.053 108.964 81.0725 108.938 81.0863 108.908C81.1 108.878 81.1078 108.845 81.1091 108.812V107.479C81.1078 107.446 81.1 107.414 81.0863 107.384C81.0725 107.354 81.053 107.327 81.0288 107.305C81.0046 107.282 80.9763 107.265 80.9455 107.254C80.9146 107.242 80.8818 107.237 80.8489 107.238H79.8485C79.7922 107.237 79.7369 107.254 79.6909 107.286C79.6449 107.319 79.6107 107.365 79.5934 107.419L79.2082 108.747C79.1984 108.785 79.1979 108.825 79.2067 108.864C79.2156 108.902 79.2335 108.938 79.259 108.968C79.2845 108.998 79.3169 109.021 79.3533 109.036C79.3897 109.051 79.4292 109.057 79.4683 109.053Z" fill="#263238"/>
<path d="M77.5449 109.053H78.9206C78.9874 109.056 79.0527 109.032 79.1023 108.987C79.1519 108.942 79.1818 108.879 79.1857 108.812V107.479C79.1818 107.412 79.1519 107.349 79.1023 107.304C79.0527 107.259 78.9874 107.236 78.9206 107.238H77.9201C77.8638 107.237 77.8085 107.254 77.7625 107.286C77.7165 107.319 77.6823 107.365 77.665 107.419L77.2748 108.747C77.2646 108.786 77.2641 108.827 77.2735 108.867C77.2828 108.906 77.3017 108.942 77.3284 108.972C77.3551 109.003 77.3888 109.026 77.4266 109.04C77.4644 109.054 77.505 109.059 77.5449 109.053Z" fill="#263238"/>
<path d="M75.6377 109.053H77.0184C77.0512 109.054 77.084 109.049 77.1149 109.038C77.1457 109.026 77.1741 109.009 77.1982 108.987C77.2224 108.964 77.2419 108.938 77.2557 108.908C77.2695 108.878 77.2772 108.845 77.2785 108.812V107.479C77.2772 107.446 77.2695 107.414 77.2557 107.384C77.2419 107.354 77.2224 107.327 77.1982 107.305C77.1741 107.282 77.1457 107.265 77.1149 107.254C77.084 107.242 77.0512 107.237 77.0184 107.238H76.0179C75.9616 107.237 75.9063 107.254 75.8603 107.286C75.8143 107.319 75.7801 107.365 75.7628 107.419L75.3776 108.747C75.3678 108.785 75.3673 108.825 75.3762 108.864C75.385 108.902 75.4029 108.938 75.4285 108.968C75.454 108.998 75.4863 109.021 75.5227 109.036C75.5591 109.051 75.5986 109.057 75.6377 109.053Z" fill="#263238"/>
<path d="M73.7381 109.053H75.1138C75.1806 109.056 75.2459 109.032 75.2955 108.987C75.345 108.942 75.375 108.879 75.3789 108.812V107.479C75.375 107.412 75.345 107.349 75.2955 107.304C75.2459 107.259 75.1806 107.236 75.1138 107.238H74.1133C74.0578 107.238 74.0037 107.255 73.9587 107.288C73.9137 107.32 73.8802 107.366 73.8632 107.419L73.468 108.752C73.4587 108.791 73.459 108.831 73.4688 108.87C73.4786 108.909 73.4976 108.944 73.5242 108.974C73.5507 109.003 73.5841 109.026 73.6214 109.04C73.6586 109.054 73.6987 109.058 73.7381 109.053Z" fill="#263238"/>
<path d="M71.8315 109.053H73.2121C73.245 109.054 73.2778 109.049 73.3086 109.038C73.3395 109.026 73.3678 109.009 73.392 108.987C73.4161 108.964 73.4356 108.938 73.4494 108.908C73.4632 108.878 73.4709 108.845 73.4722 108.812V107.479C73.4709 107.446 73.4632 107.414 73.4494 107.384C73.4356 107.354 73.4161 107.327 73.392 107.305C73.3678 107.282 73.3395 107.265 73.3086 107.254C73.2778 107.242 73.245 107.237 73.2121 107.238H72.2116C72.1554 107.237 72.1001 107.254 72.054 107.286C72.008 107.319 71.9738 107.365 71.9565 107.419L71.5713 108.747C71.5615 108.785 71.561 108.825 71.5699 108.864C71.5787 108.902 71.5967 108.938 71.6222 108.968C71.6477 108.998 71.68 109.021 71.7164 109.036C71.7529 109.051 71.7923 109.057 71.8315 109.053Z" fill="#263238"/>
<path d="M69.9324 109.053H71.3081C71.3749 109.056 71.4402 109.032 71.4898 108.987C71.5394 108.942 71.5693 108.879 71.5732 108.812V107.479C71.5693 107.412 71.5394 107.349 71.4898 107.304C71.4402 107.259 71.3749 107.236 71.3081 107.238H70.3076C70.2522 107.238 70.198 107.255 70.153 107.288C70.108 107.32 70.0745 107.366 70.0575 107.419L69.6673 108.747C69.6573 108.786 69.6568 108.826 69.6659 108.865C69.675 108.904 69.6934 108.94 69.7195 108.97C69.7456 109 69.7786 109.024 69.8157 109.038C69.8528 109.052 69.8929 109.058 69.9324 109.053Z" fill="#263238"/>
<path d="M68.0248 109.053H69.4054C69.4383 109.054 69.4711 109.049 69.5019 109.038C69.5328 109.026 69.5611 109.009 69.5852 108.987C69.6094 108.964 69.6289 108.938 69.6427 108.908C69.6565 108.878 69.6642 108.845 69.6655 108.812V107.479C69.6642 107.446 69.6565 107.414 69.6427 107.384C69.6289 107.354 69.6094 107.327 69.5852 107.305C69.5611 107.282 69.5328 107.265 69.5019 107.254C69.4711 107.242 69.4383 107.237 69.4054 107.238H68.4049C68.3486 107.237 68.2933 107.254 68.2473 107.286C68.2013 107.319 68.1671 107.365 68.1498 107.419L67.7646 108.747C67.7548 108.785 67.7543 108.825 67.7632 108.864C67.772 108.902 67.79 108.938 67.8155 108.968C67.841 108.998 67.8733 109.021 67.9097 109.036C67.9462 109.051 67.9856 109.057 68.0248 109.053Z" fill="#263238"/>
<path d="M66.1244 109.053H67.5001C67.5669 109.056 67.6322 109.032 67.6818 108.987C67.7314 108.942 67.7613 108.879 67.7652 108.812V107.479C67.7613 107.412 67.7314 107.349 67.6818 107.304C67.6322 107.259 67.5669 107.236 67.5001 107.238H66.4996C66.4442 107.238 66.39 107.255 66.345 107.288C66.3 107.32 66.2666 107.366 66.2495 107.419L65.8593 108.747C65.8493 108.786 65.8488 108.826 65.8579 108.865C65.867 108.904 65.8854 108.94 65.9115 108.97C65.9376 109 65.9707 109.024 66.0078 109.038C66.0448 109.052 66.0849 109.058 66.1244 109.053Z" fill="#263238"/>
<path d="M64.2177 109.053H65.5984C65.6312 109.054 65.664 109.049 65.6949 109.038C65.7258 109.026 65.7541 109.009 65.7782 108.987C65.8024 108.964 65.8219 108.938 65.8357 108.908C65.8495 108.878 65.8572 108.845 65.8585 108.812V107.479C65.8572 107.446 65.8495 107.414 65.8357 107.384C65.8219 107.354 65.8024 107.327 65.7782 107.305C65.7541 107.282 65.7258 107.265 65.6949 107.254C65.664 107.242 65.6312 107.237 65.5984 107.238H64.5979C64.5416 107.237 64.4863 107.254 64.4403 107.286C64.3943 107.319 64.3601 107.365 64.3428 107.419L63.9626 108.752C63.9539 108.79 63.9541 108.829 63.9631 108.866C63.9722 108.903 63.9898 108.938 64.0146 108.967C64.0394 108.996 64.0707 109.019 64.106 109.034C64.1412 109.049 64.1795 109.056 64.2177 109.053Z" fill="#263238"/>
<path d="M62.8327 109.197C62.8431 109.488 62.9678 109.763 63.1796 109.962C63.3913 110.161 63.673 110.268 63.9632 110.26H92.4767C92.767 110.272 93.0503 110.169 93.2649 109.973C93.4795 109.776 93.608 109.503 93.6222 109.212C93.6213 109.072 93.591 108.933 93.5332 108.806C93.4755 108.678 93.3916 108.564 93.2871 108.47C93.0703 108.277 92.7916 108.169 92.5017 108.165H63.9632C63.8569 108.165 63.7511 108.178 63.6481 108.205C63.4234 108.26 63.2226 108.386 63.0756 108.565C62.9286 108.744 62.8434 108.966 62.8327 109.197Z" fill="#263238"/>
<path opacity="0.2" d="M62.8327 109.197C62.8431 109.488 62.9678 109.763 63.1796 109.962C63.3913 110.161 63.673 110.268 63.9632 110.26H92.4767C92.767 110.272 93.0503 110.169 93.2649 109.973C93.4795 109.776 93.608 109.503 93.6222 109.212C93.6213 109.072 93.591 108.933 93.5332 108.806C93.4755 108.678 93.3916 108.564 93.2871 108.47C93.0703 108.277 92.7916 108.169 92.5017 108.165H63.9632C63.8569 108.165 63.7511 108.178 63.6481 108.205C63.4234 108.26 63.2226 108.386 63.0756 108.565C62.9286 108.744 62.8434 108.966 62.8327 109.197Z" fill="white"/>
<path d="M62.8327 109.193C62.8431 109.484 62.9678 109.759 63.1796 109.958C63.3913 110.157 63.673 110.264 63.9632 110.256H73.6128C73.8365 110.199 74.0355 110.07 74.1791 109.889C74.3228 109.708 74.4032 109.485 74.4082 109.253C74.4133 109.192 74.4133 109.13 74.4082 109.068C74.3632 108.853 74.251 108.658 74.088 108.512C74.0116 108.447 73.9296 108.39 73.8429 108.341L73.7078 108.281C73.5675 108.226 73.4181 108.199 73.2676 108.201H63.6631C63.4356 108.253 63.2314 108.378 63.0815 108.557C62.9316 108.736 62.8443 108.96 62.8327 109.193Z" fill="#263238"/>
<path d="M152.365 89.9462C152.365 89.9462 156.047 135.837 156.077 136.097L158.408 163.456H163.475C163.475 163.456 163.63 161.987 163.945 159.912C166.707 141.721 164.746 135.736 164.746 135.736C164.746 135.736 167.177 100.618 168.027 97.9714C168.112 97.6957 165.261 78.4222 152.365 89.9462Z" fill="#263238"/>
<g opacity="0.2">
<path opacity="0.2" d="M152.365 89.9462C152.365 89.9462 156.047 135.837 156.077 136.097L158.408 163.456H163.475C163.475 163.456 163.63 161.987 163.945 159.912C166.707 141.721 164.746 135.736 164.746 135.736C164.746 135.736 167.177 100.618 168.027 97.9714C168.112 97.6957 165.261 78.4222 152.365 89.9462Z" fill="black"/>
</g>
<path d="M152.397 89.3082C153.466 93.2705 155.981 96.6858 159.445 98.8773L162.947 101.098C162.947 101.098 181.17 83.4986 165.178 79.6389C162.081 78.892 152.397 89.3082 152.397 89.3082Z" fill="#263238"/>
<path d="M198.072 158.963L194.891 161.114L191.915 157.284L188.693 153.138V153.133L192.435 150.562L192.945 151.319L195.451 155.058L198.072 158.963Z" fill="#FF8B7B"/>
<path opacity="0.2" d="M195.451 155.057L191.915 157.283L188.693 153.138L192.525 150.727L192.945 151.318L195.451 155.057Z" fill="black"/>
<path d="M177.048 107.034C177.123 113.094 178.439 124.041 179.274 130.041C179.274 130.041 183.776 135.42 186.243 139.149L194.021 151.947L189.239 155.054L174.012 138.613C169.65 135.295 170.35 133.29 169.245 130.252C166.538 122.833 164.798 114.838 163.607 107.595C163.057 104.237 160.641 93.3241 161.481 90.0509C162.611 85.6197 163.927 77.9905 169.115 81.2738C173.462 84.0107 176.828 88.497 177.048 107.034Z" fill="#263238"/>
<path d="M195.801 153.211L189.889 156.945L187.487 154.469L194.136 150.208L195.801 153.211Z" fill="#003ECB"/>
<path d="M194.266 161.25L196.672 157.024C196.71 156.949 196.775 156.891 196.854 156.862C196.933 156.833 197.02 156.835 197.097 156.869L200.699 158.287C200.868 158.36 201.001 158.497 201.069 158.668C201.138 158.839 201.136 159.03 201.064 159.199L201.029 159.265C200.164 160.723 199.678 161.38 198.623 163.235C197.978 164.378 196.712 166.989 195.817 168.568C194.921 170.147 193.315 169.34 193.551 168.603C194.591 165.305 194.426 163.455 194.156 161.992C194.104 161.739 194.143 161.476 194.266 161.25Z" fill="#263238"/>
<path d="M193.587 163.508C194.087 163.333 194.467 162.38 194.617 161.834C194.622 161.815 194.622 161.795 194.615 161.776C194.609 161.757 194.598 161.741 194.582 161.729C194.566 161.717 194.547 161.71 194.527 161.71C194.507 161.71 194.488 161.717 194.472 161.729C194.312 161.814 192.936 162.536 192.886 163.077C192.88 163.139 192.89 163.202 192.915 163.26C192.941 163.317 192.981 163.366 193.031 163.403C193.077 163.436 193.125 163.465 193.176 163.488C193.24 163.519 193.309 163.536 193.379 163.54C193.45 163.543 193.52 163.532 193.587 163.508ZM194.352 162.004C194.102 162.731 193.807 163.213 193.527 163.303C193.462 163.32 193.395 163.32 193.33 163.305C193.265 163.289 193.206 163.257 193.156 163.213C193.132 163.2 193.113 163.18 193.101 163.156C193.09 163.131 193.086 163.104 193.091 163.077C193.116 162.786 193.807 162.31 194.352 162.004Z" fill="#003ECB"/>
<path d="M194.572 161.886C194.587 161.877 194.6 161.863 194.609 161.847C194.617 161.832 194.622 161.814 194.622 161.796C194.62 161.779 194.614 161.762 194.603 161.748C194.593 161.734 194.578 161.723 194.562 161.716C194.517 161.686 193.437 161.079 192.847 161.28C192.773 161.304 192.706 161.344 192.65 161.397C192.594 161.45 192.55 161.514 192.521 161.586C192.483 161.657 192.469 161.739 192.482 161.819C192.496 161.899 192.536 161.972 192.596 162.027C192.629 162.052 192.664 162.074 192.701 162.092C193.329 162.25 193.993 162.177 194.572 161.886ZM194.297 161.796C193.797 161.987 192.957 162.067 192.731 161.871C192.696 161.836 192.656 161.786 192.706 161.666C192.725 161.62 192.754 161.579 192.79 161.545C192.826 161.511 192.869 161.486 192.917 161.47C193.388 161.435 193.859 161.543 194.267 161.781L194.297 161.796Z" fill="#003ECB"/>
<path d="M142.327 107.926L138.966 107.71C138.966 107.71 136.61 90.7378 136.385 90.0611C136.074 88.828 134.188 79.3642 133.443 76.9481L133.803 76.893C133.403 75.6498 133.743 74.3065 135.049 73.8854C136.354 73.4643 138.145 74.1561 138.551 75.3892C139.391 77.8955 140.992 87.4194 141.232 88.5623C141.234 88.589 141.234 88.6158 141.232 88.6425C141.997 93.61 142.327 107.926 142.327 107.926Z" fill="#FF8B7B"/>
<path d="M142.326 107.926C142.326 109.47 140.925 110.267 139.915 110.372H134.582L134.272 110.297C134.242 110.289 134.214 110.272 134.192 110.25C134.17 110.227 134.155 110.199 134.148 110.168C134.14 110.137 134.142 110.105 134.151 110.075C134.161 110.044 134.178 110.017 134.202 109.996L135.163 109.224C136.223 108.367 137.664 108.087 138.964 107.721L142.326 107.926Z" fill="#FF8B7B"/>
<path d="M135.79 68.7144C130.332 71.3461 134.144 82.3086 134.144 82.3086L140.852 81.6871C140.852 81.6871 141.518 73.7371 140.757 71.2558C139.952 68.6543 138.401 67.0051 135.79 68.7144Z" fill="#003ECB"/>
<path opacity="0.2" d="M137.809 81.9623C137.809 81.9623 136.308 73.9421 137.779 72.4384C138.21 72.1147 138.697 71.8734 139.215 71.7266C141.011 72.5035 140.64 75.095 140.64 75.095L140.85 81.6766C139.995 81.8119 137.809 81.9623 137.809 81.9623Z" fill="black"/>
<path d="M136.814 75.7053C138.565 78.748 142.317 82.8232 152.322 89.094L164.657 79.5701C160.511 74.6026 157.924 71.2942 152.862 60.5723C152.625 60.0493 152.272 59.587 151.831 59.2198C151.39 58.8526 150.872 58.5901 150.316 58.4519C149.382 58.2348 148.402 58.3836 147.574 58.868C146.659 59.4043 145.664 60.0209 144.693 60.7026C142.482 62.1661 140.378 63.7878 138.4 65.5548C137.019 66.833 135.639 68.2967 134.653 69.3694C134.653 69.3694 134.653 69.5398 134.733 69.9358C135.081 71.9673 135.785 73.9209 136.814 75.7053Z" fill="#003ECB"/>
<path opacity="0.2" d="M153.611 61.6787C153.776 62.1048 153.941 62.5359 154.111 62.9118C154.931 64.8668 155.871 66.7686 156.928 68.6061C152.926 69.3179 148.834 67.1024 148.228 65.6587C147.843 64.7815 151.61 62.2652 153.611 61.6787Z" fill="black"/>
<path d="M164.231 78.5967L165.807 79.3536C165.932 79.4138 165.907 79.5992 165.732 79.7245L152.366 89.9452C152.241 90.0405 152.086 90.0555 152.021 89.9854L150.94 88.8375C150.865 88.7623 150.94 88.6069 151.055 88.4966L163.921 78.6769C163.961 78.6374 164.011 78.6092 164.066 78.5951C164.12 78.5811 164.177 78.5816 164.231 78.5967Z" fill="#003ECB"/>
<path opacity="0.6" d="M164.231 78.5967L165.807 79.3536C165.932 79.4138 165.907 79.5992 165.732 79.7245L152.366 89.9452C152.241 90.0405 152.086 90.0555 152.021 89.9854L150.94 88.8375C150.865 88.7623 150.94 88.6069 151.055 88.4966L163.921 78.6769C163.961 78.6374 164.011 78.6092 164.066 78.5951C164.12 78.5811 164.177 78.5816 164.231 78.5967Z" fill="white"/>
<path d="M151.055 88.5004L163.921 78.6807L151.055 88.5004Z" fill="#003ECB"/>
<path d="M163.548 81.6166L163.908 81.3309C163.988 81.2758 164.013 81.1906 163.973 81.1505L162.553 79.6467C162.513 79.6016 162.417 79.6116 162.342 79.6718L161.982 79.9525C161.907 80.0126 161.882 80.0928 161.922 80.1379L163.338 81.6166C163.367 81.642 163.404 81.656 163.443 81.656C163.482 81.656 163.519 81.642 163.548 81.6166Z" fill="#263238"/>
<path d="M153.549 89.274L153.91 88.9883C153.985 88.9331 154.015 88.8479 153.97 88.8028L152.554 87.3291C152.521 87.3076 152.481 87.2983 152.442 87.3029C152.403 87.3075 152.366 87.3256 152.339 87.3542L151.979 87.6349C151.904 87.695 151.874 87.7802 151.914 87.8203L153.334 89.2991C153.374 89.3442 153.469 89.3341 153.549 89.274Z" fill="#263238"/>
<path d="M138.605 54.0737C139.771 56.4096 142.227 60.4347 144.683 60.7004C144.683 60.7004 146.114 64.2343 143.432 70.7657C137.64 69.5276 138.39 65.5526 138.39 65.5526C140.236 63.2669 138.89 61.6378 137.28 60.3646L138.605 54.0737Z" fill="#FF8B7B"/>
<path d="M143.838 71.5287L144.043 71.0274C146.794 64.3206 145.383 60.4308 145.318 60.2754L143.918 60.511L144.068 60.9521C144.068 60.9872 145.273 64.1802 143.032 69.9748C138.555 68.7868 138.815 65.0223 138.84 64.892L137.84 65.9998C137.84 66.0449 136.924 70.04 143.277 71.3984L143.838 71.5287Z" fill="#003ECB"/>
<path opacity="0.6" d="M143.838 71.5287L144.043 71.0274C146.794 64.3206 145.383 60.4308 145.318 60.2754L143.918 60.511L144.068 60.9521C144.068 60.9872 145.273 64.1802 143.032 69.9748C138.555 68.7868 138.815 65.0223 138.84 64.892L137.84 65.9998C137.84 66.0449 136.924 70.04 143.277 71.3984L143.838 71.5287Z" fill="white"/>
<path opacity="0.2" d="M138.46 54.7632C139.359 55.9927 139.985 57.4011 140.296 58.8936C140.501 59.9262 139.901 62.0365 138.795 61.9011C138.377 61.3122 137.871 60.7914 137.294 60.3573L138.46 54.7632Z" fill="black"/>
<path d="M131.637 65.9006C126.995 62.0359 125.684 56.6724 125.634 51.8904C125.634 50.9881 125.819 48.0758 126.72 48.0257C133.673 47.6246 125.799 54.6172 131.637 65.9006Z" fill="#263238"/>
<path d="M137.363 49.6652C139.634 53.1389 140.67 54.5625 140.259 57.52C139.649 61.9661 134.897 64.0013 131.645 61.2744C128.709 58.8182 125.487 53.545 127.754 49.7955C128.248 48.9677 128.946 48.2804 129.781 47.799C130.615 47.3176 131.559 47.058 132.522 47.045C133.485 47.0319 134.435 47.2658 135.283 47.7244C136.13 48.183 136.846 48.8511 137.363 49.6652Z" fill="#FF8B7B"/>
<path d="M133.207 59.923C133.207 59.923 133.767 58.7952 136.103 56.2588C136.829 57.3566 137.104 58.5596 135.923 59.8629C135.423 60.5797 134.252 60.6548 133.352 60.0333C133.301 59.9994 133.253 59.9625 133.207 59.923Z" fill="#263238"/>
<path d="M135.678 58.6261C135.181 59.1017 134.888 59.7526 134.863 60.4407C135.267 60.3781 135.635 60.1738 135.903 59.8642C136.151 59.6313 136.351 59.3515 136.491 59.041C136.631 58.7304 136.708 58.3953 136.718 58.0547C136.315 58.1151 135.946 58.3177 135.678 58.6261Z" fill="#FF5652"/>
<path d="M133.288 59.7879C133.418 59.8621 133.565 59.9012 133.715 59.9012C133.865 59.9012 134.013 59.8621 134.143 59.7879C134.83 59.0334 135.439 58.2104 135.959 57.3317C136.052 57.1888 136.105 57.0229 136.11 56.8522C136.115 56.6815 136.073 56.5126 135.989 56.3643C134.981 57.4161 134.077 58.5626 133.288 59.7879Z" fill="white"/>
<path d="M131.107 56.4897C131.258 57.3313 131.295 58.1896 131.217 59.0412C131.434 59.0551 131.652 59.0215 131.855 58.9428C132.058 58.864 132.241 58.7419 132.392 58.585L131.107 56.4897Z" fill="#FF5652"/>
<path d="M132.377 53.0117C132.344 53.0214 132.309 53.0214 132.277 53.0117C132.04 52.9359 131.788 52.9177 131.543 52.9587C131.298 52.9996 131.066 53.0986 130.866 53.2473C130.846 53.2638 130.824 53.2762 130.799 53.2839C130.775 53.2915 130.749 53.2943 130.723 53.292C130.698 53.2896 130.673 53.2823 130.65 53.2703C130.627 53.2583 130.607 53.242 130.591 53.2222C130.572 53.2049 130.558 53.1839 130.548 53.1606C130.538 53.1373 130.532 53.1122 130.532 53.0869C130.532 53.0615 130.538 53.0364 130.548 53.0131C130.558 52.9898 130.572 52.9689 130.591 52.9515C130.841 52.7616 131.132 52.6342 131.441 52.5802C131.75 52.5261 132.067 52.5469 132.367 52.6408C132.417 52.658 132.459 52.693 132.485 52.7393C132.51 52.7855 132.518 52.8397 132.507 52.8914C132.495 52.9194 132.477 52.9445 132.454 52.9652C132.432 52.9859 132.406 53.0017 132.377 53.0117Z" fill="#263238"/>
<path d="M127.755 56.5127H127.72C127.667 56.5129 127.617 56.4935 127.578 56.4583C127.539 56.423 127.515 56.3745 127.51 56.3222C127.485 56.0072 127.537 55.6909 127.66 55.4003C127.784 55.1096 127.976 54.8532 128.22 54.653C128.241 54.6373 128.264 54.6259 128.289 54.6195C128.314 54.613 128.34 54.6116 128.366 54.6153C128.392 54.619 128.416 54.6278 128.438 54.6412C128.46 54.6546 128.48 54.6722 128.495 54.6931C128.525 54.7365 128.537 54.7893 128.529 54.8412C128.522 54.8931 128.495 54.9404 128.455 54.9738C128.265 55.1341 128.116 55.3382 128.021 55.5685C127.926 55.7989 127.888 56.0489 127.91 56.2971C127.914 56.3456 127.9 56.3939 127.872 56.4334C127.843 56.4729 127.802 56.5009 127.755 56.5127Z" fill="#263238"/>
<path d="M132.808 54.3863C133.008 54.657 133.043 54.9778 132.853 55.1182C132.663 55.2585 132.353 55.1182 132.162 54.8625C131.972 54.6069 131.927 54.2761 132.117 54.1357C132.307 53.9953 132.603 54.1157 132.808 54.3863Z" fill="#263238"/>
<path d="M129.66 56.6242C129.86 56.8949 129.9 57.2157 129.705 57.356C129.51 57.4964 129.205 57.356 129.025 57.1004C128.844 56.8447 128.784 56.5089 128.98 56.3685C129.175 56.2282 129.46 56.3685 129.66 56.6242Z" fill="#263238"/>
<path d="M129.071 56.3428L128.275 56.6636C128.275 56.6636 128.991 56.8992 129.071 56.3428Z" fill="#263238"/>
<path d="M132.212 54.1157L131.421 54.4365C131.421 54.4365 132.131 54.6521 132.212 54.1157Z" fill="#263238"/>
<path d="M138.595 51.9598C140.486 52.7067 140.261 57.5238 140.261 57.5238C140.186 57.7092 142.322 54.8621 141.121 48.1903C140.321 43.7441 132.657 42.3005 126.994 47.6289C125.884 48.6665 126.549 54.7067 126.994 53.6139C127.495 52.2956 130.896 49.7793 132.997 49.2379C132.777 49.1076 137.494 51.5187 138.595 51.9598Z" fill="#263238"/>
<path d="M138.21 48.1009C138.523 47.9242 138.789 47.6766 138.989 47.378C139.189 47.0793 139.316 46.7379 139.36 46.3812C139.404 46.0245 139.365 45.6623 139.244 45.3238C139.123 44.9852 138.925 44.6797 138.666 44.4317C138.123 43.9864 137.481 43.6786 136.795 43.5345C136.111 43.3907 135.457 43.1277 134.864 42.7575C134.303 42.3415 134.143 41.8201 134.088 40.9429C133.901 41.1205 133.752 41.3341 133.65 41.5711C133.547 41.808 133.494 42.0632 133.493 42.3214C132.993 41.9455 132.908 41.3991 132.713 40.186C132.524 40.4959 132.403 40.8429 132.359 41.2034C132.315 41.564 132.349 41.9299 132.458 42.2763C132.087 42.1309 131.847 41.8653 131.682 40.6873C131.067 42.1911 131.457 43.5094 131.772 43.7299C131.354 43.7369 130.953 43.8916 130.638 44.1668C130.323 44.442 130.115 44.8199 130.051 45.2337C130.002 45.6475 130.053 46.0672 130.201 46.4567C130.35 46.8461 130.59 47.1937 130.902 47.4694C131.535 48.015 132.298 48.3863 133.118 48.5471C134.763 48.9228 136.481 48.8131 138.065 48.2313C138.065 48.1009 138.21 48.1009 138.21 48.1009Z" fill="#263238"/>
<path d="M140.926 51.1062C141.331 51.7992 141.448 52.6236 141.252 53.402C140.982 54.4346 139.926 54.4045 139.251 53.6727C138.575 52.9408 138.03 51.6676 138.67 50.8656C138.783 50.7266 138.922 50.6113 139.08 50.5262C139.237 50.4411 139.41 50.388 139.588 50.3698C139.766 50.3517 139.946 50.3688 140.117 50.4204C140.288 50.4719 140.448 50.5568 140.586 50.6701C140.727 50.7914 140.843 50.9397 140.926 51.1062Z" fill="#FF8B7B"/>
<path d="M135.178 70.4102L130.831 70.9866L130.891 74.8263C130.891 74.8263 133.853 74.1796 135.058 72.6157L135.178 70.4102Z" fill="#FF8B7B"/>
<path d="M128.295 72.6951L128.094 75.5323L130.891 74.8255L130.831 70.9858L128.295 72.6951Z" fill="#FF8B7B"/>
<g opacity="0.2">
<path opacity="0.2" d="M130.622 74.4453C130.591 74.465 130.565 74.4908 130.546 74.5211L130.622 74.4453Z" fill="black"/>
</g>
<path d="M153.286 63.0802C153.956 65.9173 153.811 71.2457 153.721 73.3661C153.693 74.3637 153.304 75.3171 152.625 76.0478C151.795 76.915 150.394 77.5516 148.123 76.5942C145.852 75.6368 134.987 73.2007 135.012 72.6342L135.122 70.4437C135.122 70.4437 141.71 70.6543 148.779 71.4463C149.094 68.1329 148.458 63.9273 148.748 62.8095C149.234 60.9749 152.435 59.4862 153.286 63.0802Z" fill="#FF8B7B"/>
<path d="M148.91 58.4325C147.41 59.5353 147.224 67.8713 147.224 67.8713L154.888 68.0266C154.888 68.0266 154.888 62.4677 154.238 60.8386C153.227 58.2069 150.591 57.1944 148.91 58.4325Z" fill="#003ECB"/>
<path d="M163.108 170.331L159.206 169.96L158.676 161.95L163.448 161.704L163.108 170.331Z" fill="#FF8B7B"/>
<path opacity="0.2" d="M158.691 161.796L158.961 166.328L163.278 166.027L163.568 161.656L158.691 161.796Z" fill="black"/>
<path d="M158.419 168.812L163.517 168.467C163.608 168.464 163.699 168.49 163.775 168.541C163.851 168.592 163.91 168.666 163.942 168.752L165.323 172.717C165.358 172.81 165.37 172.911 165.359 173.01C165.347 173.109 165.312 173.204 165.257 173.286C165.202 173.369 165.128 173.438 165.041 173.486C164.954 173.534 164.857 173.561 164.757 173.564C162.966 173.655 162.111 173.609 159.85 173.765C158.469 173.86 154.918 174.241 153.012 174.371C151.106 174.502 150.626 172.637 151.391 172.411C154.793 171.409 156.714 170.221 157.714 169.143C157.804 169.044 157.912 168.963 158.033 168.906C158.154 168.849 158.286 168.817 158.419 168.812Z" fill="#263238"/>
<path d="M157.86 169.553C157.881 169.547 157.899 169.535 157.912 169.518C157.924 169.5 157.931 169.479 157.93 169.458C157.93 169.437 157.924 169.417 157.913 169.4C157.901 169.383 157.884 169.37 157.865 169.363C157.5 169.237 155.689 168.636 155.259 168.997C155.217 169.031 155.186 169.077 155.169 169.128C155.152 169.18 155.15 169.235 155.164 169.287C155.177 169.382 155.211 169.473 155.265 169.552C155.319 169.631 155.39 169.697 155.474 169.744C155.785 169.894 156.134 169.943 156.474 169.884C156.947 169.825 157.412 169.714 157.86 169.553ZM155.584 169.087C156.236 169.111 156.881 169.236 157.495 169.458C156.604 169.728 155.899 169.774 155.579 169.578C155.52 169.546 155.469 169.5 155.432 169.444C155.395 169.388 155.371 169.324 155.364 169.257C155.359 169.239 155.359 169.22 155.364 169.203C155.369 169.185 155.38 169.169 155.394 169.157C155.45 169.118 155.516 169.095 155.584 169.092V169.087Z" fill="#003ECB"/>
<path d="M157.904 169.535C157.913 169.52 157.917 169.502 157.917 169.485C157.917 169.467 157.913 169.45 157.904 169.435C157.904 169.355 157.249 167.565 156.259 167.791C155.998 167.846 155.928 167.986 155.943 168.091C155.943 168.593 157.179 169.39 157.779 169.56H157.819C157.85 169.561 157.879 169.552 157.904 169.535ZM156.404 167.966C157.029 167.901 157.484 168.858 157.664 169.264C157.044 169.019 156.164 168.372 156.164 168.091C156.164 168.036 156.214 167.986 156.324 167.976H156.389L156.404 167.966Z" fill="#003ECB"/>
<path d="M164.784 164.663L157.48 165.024L156.67 161.791L165.154 161.239L164.784 164.663Z" fill="#003ECB"/>
<path d="M72.003 170.018L68.3212 169.176L70.1371 160.976L75.0444 162.675L72.003 170.018Z" fill="#FFC3BD"/>
<path opacity="0.2" d="M76.18 159.825L70.8125 157.705L69.6419 163.214L74.1891 164.648L76.18 159.825Z" fill="black"/>
<path d="M87.2706 170.019L83.5338 169.493L85.0695 159.803L90.1019 161.081L87.2706 170.019Z" fill="#FFC3BD"/>
<path opacity="0.2" d="M90.987 158.145L85.4593 156.491L84.5989 162.672L89.3462 163.514L90.987 158.145Z" fill="black"/>
<path d="M109.534 114.903C109.534 114.903 88.2492 117.38 87.2937 126.197C86.3433 137.691 86.8985 134.437 84.2923 160.999L90.6003 161.35C90.6003 161.35 97.0183 139.626 96.1529 130.994C103.221 130.994 119.404 131.615 121.755 125.224C122.922 121.979 123.489 118.548 123.431 115.099L109.534 114.903Z" fill="#003ECB"/>
<g opacity="0.2">
<path opacity="0.2" d="M109.537 114.903C109.537 114.903 88.2521 117.38 87.2966 126.197C86.3462 137.691 86.9015 134.437 84.2952 160.999L90.6032 161.35C90.6032 161.35 97.0212 139.626 96.1558 130.994C103.224 130.994 119.407 131.615 121.758 125.224C122.924 121.979 123.492 118.548 123.434 115.099L109.537 114.903Z" fill="black"/>
</g>
<path d="M90.7522 162.422L83.5338 161.184L83.7839 157.705L92.0378 159.404L90.7522 162.422Z" fill="#263238"/>
<path d="M83.6281 167.633L87.8401 168.465C87.917 168.484 87.9841 168.531 88.0284 168.596C88.0727 168.662 88.0912 168.742 88.0802 168.821L87.7301 172.831C87.7245 172.925 87.6999 173.018 87.6577 173.102C87.6155 173.187 87.5567 173.262 87.4847 173.324C87.4128 173.385 87.3291 173.431 87.2389 173.459C87.1487 173.487 87.0537 173.497 86.9597 173.487C85.499 173.172 84.8087 172.931 82.9578 172.565C81.8173 172.339 79.211 171.788 77.6253 171.613C76.0395 171.437 76.2296 169.577 76.915 169.482C79.9964 169.071 81.7472 168.575 82.9178 167.798C83.0188 167.724 83.1339 167.671 83.256 167.642C83.3781 167.614 83.5047 167.611 83.6281 167.633Z" fill="#263238"/>
<path d="M81.7378 168.352C82.0693 168.397 82.4046 168.407 82.7382 168.382C82.7551 168.382 82.7717 168.377 82.7853 168.367C82.7989 168.357 82.8088 168.343 82.8133 168.327C82.8207 168.312 82.8246 168.296 82.8246 168.279C82.8246 168.262 82.8207 168.246 82.8133 168.231C82.7082 168.126 81.7628 167.229 81.2775 167.329C81.2213 167.338 81.1687 167.363 81.1255 167.4C81.0822 167.437 81.0501 167.485 81.0324 167.54C80.993 167.618 80.975 167.706 80.9803 167.794C80.9855 167.882 81.0139 167.967 81.0624 168.041C81.2394 168.228 81.4812 168.339 81.7378 168.352ZM82.5431 168.216C81.8478 168.216 81.3576 168.136 81.2125 167.931C81.1829 167.882 81.1671 167.827 81.1671 167.77C81.1671 167.714 81.1829 167.658 81.2125 167.61C81.2204 167.583 81.2352 167.559 81.2554 167.539C81.2756 167.52 81.3004 167.506 81.3276 167.5C81.5827 167.444 82.1529 167.865 82.5431 168.216Z" fill="#003ECB"/>
<path d="M82.7426 168.401H82.7826C82.797 168.395 82.8098 168.387 82.8202 168.375C82.8306 168.364 82.8383 168.35 82.8427 168.336C82.8427 168.291 83.1178 167.223 82.7976 166.797C82.7587 166.74 82.7064 166.693 82.6454 166.661C82.5844 166.628 82.5165 166.611 82.4475 166.611C82.3725 166.601 82.2961 166.615 82.2307 166.654C82.1653 166.692 82.1148 166.751 82.0873 166.822C81.9322 167.218 82.3624 168.095 82.6976 168.381C82.703 168.387 82.7099 168.393 82.7177 168.396C82.7255 168.4 82.7341 168.401 82.7426 168.401ZM82.4825 166.792C82.5177 166.797 82.5515 166.809 82.5817 166.828C82.6118 166.847 82.6377 166.872 82.6576 166.902C82.8016 167.298 82.8173 167.73 82.7026 168.135C82.398 167.793 82.2367 167.346 82.2524 166.887C82.2524 166.837 82.3074 166.782 82.4375 166.787L82.4825 166.792Z" fill="#003ECB"/>
<path d="M102.073 114.903C101.908 114.903 73.9595 117.786 73.9245 127.284C72.849 134.302 69.3873 160.999 69.3873 160.999L75.2951 162.934C75.2951 162.934 84.5295 144.222 84.3844 131.976C92.073 129.766 111.962 133.48 114.314 127.094C116.239 121.871 115.199 114.903 115.199 114.903H102.073Z" fill="#003ECB"/>
<path d="M75.6404 163.622L68.6471 161.321L69.2424 158.284L77.0511 160.95L75.6404 163.622Z" fill="#263238"/>
<path d="M68.5666 167.17L72.7886 168.052C72.8675 168.077 72.9346 168.13 72.9778 168.201C73.021 168.272 73.0373 168.356 73.0237 168.438L72.6935 172.829C72.6335 173.33 72.2933 173.631 71.9282 173.556C70.4675 173.22 69.7772 172.959 67.9263 172.553C66.7857 172.318 63.6793 171.551 62.1135 171.155C60.5478 170.759 60.898 168.744 61.6133 168.734C64.7098 168.689 66.7157 168.177 67.9063 167.315C68.0003 167.246 68.1075 167.198 68.2212 167.173C68.3349 167.148 68.4525 167.147 68.5666 167.17Z" fill="#263238"/>
<path d="M66.8306 168.117C67.1243 167.956 67.4008 167.767 67.656 167.55C67.6689 167.538 67.6784 167.523 67.6837 167.507C67.689 167.49 67.6898 167.472 67.686 167.455C67.6805 167.439 67.6705 167.425 67.6572 167.414C67.6439 167.403 67.6279 167.397 67.611 167.395C67.4659 167.37 66.1753 167.204 65.8402 167.575C65.8037 167.618 65.7782 167.669 65.766 167.724C65.7538 167.779 65.7552 167.837 65.7701 167.891C65.7841 167.979 65.8211 168.061 65.8774 168.13C65.9336 168.199 66.0071 168.251 66.0903 168.282C66.349 168.321 66.613 168.262 66.8306 168.117ZM67.3959 167.53C66.8506 167.961 66.3954 168.167 66.1603 168.092C66.1075 168.069 66.0616 168.034 66.0273 167.988C65.993 167.942 65.9715 167.888 65.9652 167.831C65.957 167.804 65.956 167.776 65.9621 167.748C65.9683 167.721 65.9814 167.696 66.0002 167.675C66.1753 167.5 66.8757 167.485 67.3959 167.53Z" fill="#003ECB"/>
<path d="M67.6571 167.551L67.6922 167.521C67.6997 167.509 67.7037 167.495 67.7037 167.481C67.7037 167.467 67.6997 167.453 67.6922 167.441C67.6922 167.406 67.2519 166.378 66.7467 166.223C66.6816 166.201 66.6122 166.195 66.5443 166.205C66.4764 166.216 66.412 166.242 66.3565 166.283C66.2893 166.319 66.2364 166.377 66.2064 166.447C66.1764 166.517 66.1711 166.595 66.1914 166.669C66.2965 167.08 67.1619 167.531 67.6071 167.561L67.6571 167.551ZM66.4916 166.393C66.5247 166.378 66.5605 166.371 66.5966 166.371C66.6328 166.371 66.6686 166.378 66.7017 166.393C67.0539 166.626 67.3235 166.965 67.472 167.36C67.0233 167.265 66.6279 167.001 66.3665 166.624C66.3365 166.584 66.3665 166.503 66.4566 166.433L66.4916 166.393Z" fill="#003ECB"/>
<path d="M116.544 88.2217C117.472 92.7236 117.835 97.324 117.624 101.916C117.593 102.72 117.321 103.496 116.844 104.144C116.367 104.791 115.706 105.279 114.948 105.545C109.601 107.385 95.7491 108.082 91.267 107.515L93.0828 105.595C93.0828 105.595 112.092 101.876 111.637 100.387C111.637 100.387 110.736 90.8633 110.136 89.4698L116.544 88.2217Z" fill="#FFC3BD"/>
<path d="M93.4742 105.635L90.2527 103.524L86.9161 105.79C86.9161 105.79 89.4573 107.981 91.8534 107.419L93.4742 105.635Z" fill="#FFC3BD"/>
<path d="M87.3107 104.261L85.5549 105.62C85.5251 105.644 85.5031 105.676 85.4917 105.713C85.4802 105.75 85.4798 105.789 85.4905 105.826C85.5012 105.863 85.5225 105.896 85.5517 105.921C85.5809 105.945 85.6168 105.961 85.6549 105.966L87.7259 106.161L90.2271 103.524L87.3107 104.261Z" fill="#FFC3BD"/>
<path d="M101.977 85.6614C102.354 85.7489 102.71 85.9109 103.023 86.1378C103.337 86.3648 103.602 86.6522 103.803 86.9832C104.004 87.3142 104.138 87.6821 104.195 88.0654C104.253 88.4487 104.233 88.8397 104.138 89.2153C103.968 89.8971 98.5404 102.609 98.2753 103.035C96.4845 107.426 93.313 107.135 88.9759 107.286C85.5343 107.246 82.9731 107.536 79.6015 106.785L80.4269 104.98C82.803 104.88 87.8404 103.13 90.7968 102.298C91.3589 102.165 91.8856 101.912 92.3407 101.555C92.7957 101.199 93.1684 100.748 93.433 100.233C94.8287 97.2255 98.0452 89.5612 98.5054 87.7517C98.6947 87.0154 99.1638 86.3826 99.8125 85.9883C100.461 85.594 101.238 85.4694 101.977 85.6414V85.6614Z" fill="#FFC3BD"/>
<path d="M80.5826 105.001L77.8213 103.788L75.5052 106.485C75.5052 106.485 79.2119 107.668 79.8572 106.535L80.5826 105.001Z" fill="#FFC3BD"/>
<path d="M74.4654 106.054L73.7851 106.695C73.747 106.734 73.7232 106.785 73.7174 106.839C73.7117 106.893 73.7243 106.947 73.7533 106.993C73.7823 107.039 73.8259 107.073 73.8771 107.091C73.9283 107.109 73.984 107.109 74.0352 107.091L75.5359 106.485L77.852 103.788L75.4108 105.332C75.0732 105.542 74.7566 105.783 74.4654 106.054Z" fill="#FFC3BD"/>
<path d="M104.894 70.0449L107.781 71.8445L112.063 74.1904C112.076 75.2763 112.164 76.36 112.328 77.4335C112.673 78.7969 113.158 79.8947 115.559 80.1453C115.559 80.1453 118.686 82.3609 113.148 83.203C107.611 84.0451 105.965 81.5489 105.965 81.5489C107.786 79.1729 106.04 73.0776 104.894 70.0449Z" fill="#FFC3BD"/>
<path d="M114.892 64.1921C114.992 64.523 115.248 64.7535 115.468 64.6934C115.688 64.6332 115.788 64.3174 115.688 63.9866C115.588 63.6558 115.328 63.4302 115.108 63.4853C114.887 63.5405 114.792 63.8613 114.892 64.1921Z" fill="#263238"/>
<path d="M113.371 63.4332C113.405 63.4281 113.436 63.4136 113.462 63.3915C113.488 63.3693 113.507 63.3403 113.517 63.3079C113.607 63.0631 113.753 62.8424 113.942 62.6626C114.131 62.4827 114.358 62.3486 114.607 62.2703C114.633 62.2644 114.658 62.2533 114.68 62.2377C114.702 62.2222 114.721 62.2025 114.735 62.1796C114.75 62.1568 114.759 62.1314 114.764 62.1048C114.769 62.0782 114.768 62.051 114.762 62.0247C114.756 61.9983 114.745 61.9734 114.73 61.9514C114.714 61.9293 114.694 61.9105 114.672 61.8961C114.649 61.8817 114.624 61.8719 114.597 61.8673C114.57 61.8627 114.543 61.8633 114.517 61.8693C114.203 61.9629 113.914 62.1284 113.675 62.3529C113.435 62.5773 113.251 62.8545 113.136 63.1625C113.118 63.2131 113.12 63.2689 113.141 63.3183C113.162 63.3678 113.202 63.4071 113.251 63.4282C113.29 63.4398 113.332 63.4415 113.371 63.4332Z" fill="#263238"/>
<path d="M115.13 64.5322C115.681 65.3502 116.336 66.0918 117.081 66.7378C116.911 66.9179 116.704 67.0584 116.474 67.1494C116.244 67.2403 115.997 67.2795 115.75 67.2641L115.13 64.5322Z" fill="#ED847E"/>
<path d="M103.342 66.1787C104.808 70.1888 105.473 72.66 108.18 74.1989C109.351 74.8931 110.736 75.1321 112.071 74.8706C112.854 74.7146 113.596 74.3952 114.247 73.9332C115.019 73.3746 115.636 72.628 116.039 71.7641C116.443 70.9002 116.62 69.9474 116.554 68.9958C116.353 65.0659 113.982 59.1209 109.48 58.5445C108.5 58.3879 107.496 58.4937 106.57 58.8513C105.644 59.2089 104.829 59.8056 104.207 60.5807C103.586 61.3558 103.18 62.2819 103.03 63.265C102.881 64.2482 102.994 65.2534 103.357 66.1787H103.342Z" fill="#FFC3BD"/>
<path opacity="0.2" d="M112.072 74.8641C112.855 74.7081 113.596 74.3888 114.248 73.9268C114.138 73.9669 112.747 74.4731 112.022 74.1022L112.072 74.8641Z" fill="black"/>
<path d="M101.406 69.5243C102.85 71.6614 104.554 73.6097 106.479 75.3239C107.889 74.8978 109.12 74.6572 110.561 74.3214C111.121 72.6973 111.241 67.6095 111.776 66.7423C112.311 65.8751 113.402 64.7373 113.872 63.845C114.171 63.215 114.3 62.5179 114.247 61.8226C114.194 61.1273 113.962 60.4577 113.572 59.88C112.758 58.7352 111.534 57.9503 110.155 57.6895C108.97 57.4526 107.745 57.496 106.579 57.8162C105.413 58.1364 104.337 58.7246 103.437 59.5342C102.656 60.165 102.125 61.0532 101.937 62.0405C99.9756 63.3588 99.4054 66.4816 101.406 69.5243Z" fill="#263238"/>
<path d="M101.711 59.979C101.623 60.6665 101.679 61.3647 101.876 62.0292C101.636 61.9559 101.423 61.8114 101.265 61.6145C101.108 61.4177 101.014 61.1778 100.996 60.9264C100.976 60.4251 101.251 60.1795 101.711 59.979Z" fill="#263238"/>
<path d="M110.483 67.073C110.942 68.0395 111.697 68.8335 112.639 69.3387C113.814 69.9252 114.315 68.8374 113.914 67.4941C113.544 66.3011 112.509 64.5466 111.343 64.5266C110.178 64.5065 109.892 65.8349 110.483 67.073Z" fill="#FFC3BD"/>
<path d="M121.877 81.4003C121.502 80.3978 119.631 79.2098 117.875 79.3953H116.71C115.689 79.4114 114.671 79.5035 113.663 79.671C110.804 79.9851 107.964 80.4637 105.159 81.1046C103.869 81.4454 102.623 81.8765 101.658 82.2474C100.657 81.9517 101.563 90.6987 101.753 101.451C101.843 106.559 101.983 111.606 102.113 115.085H123.453C123.453 115.085 123.163 108.624 123.223 101.075C123.248 96.5434 123.423 85.5257 121.877 81.4003Z" fill="#263238"/>
<path opacity="0.2" d="M101.276 96.3378C101.436 98.2576 101.601 100.273 101.776 102.288C103.982 95.0495 105.393 87.7812 105.393 87.7812L101.276 96.3378Z" fill="black"/>
<path d="M99.6461 83.0828C96.8998 85.2683 94.1835 95.9652 94.1835 95.9652L100.727 99.444C102.968 96.5216 106.499 90.0554 106.524 87.509C106.594 83.5941 103.143 80.7119 99.6461 83.0828Z" fill="#263238"/>
<path d="M94.3984 173.074C94.4003 173.505 94.2744 173.928 94.0365 174.288C93.7986 174.648 93.4595 174.929 93.062 175.095C92.6646 175.262 92.2267 175.307 91.804 175.224C91.3812 175.141 90.9925 174.934 90.6872 174.629C90.3819 174.325 90.1737 173.936 90.0889 173.513C90.0041 173.09 90.0466 172.651 90.211 172.252C90.3754 171.853 90.6543 171.512 91.0124 171.272C91.3704 171.031 91.7915 170.903 92.2223 170.903C92.5083 170.903 92.7915 170.959 93.0558 171.068C93.3201 171.177 93.5603 171.338 93.7625 171.541C93.9647 171.743 94.1249 171.984 94.2341 172.249C94.3432 172.513 94.399 172.797 94.3984 173.084V173.074Z" fill="#263238"/>
<path d="M126.859 173.075C126.859 173.506 126.986 173.928 127.226 174.286C127.465 174.645 127.805 174.924 128.202 175.09C128.6 175.255 129.037 175.298 129.459 175.214C129.881 175.129 130.269 174.922 130.574 174.617C130.878 174.312 131.085 173.923 131.169 173.5C131.253 173.077 131.21 172.639 131.045 172.241C130.881 171.842 130.602 171.502 130.244 171.262C129.886 171.022 129.465 170.895 129.035 170.895C128.458 170.895 127.904 171.124 127.496 171.533C127.088 171.942 126.859 172.497 126.859 173.075Z" fill="#263238"/>
<path d="M108.511 172.376C108.511 172.808 108.639 173.229 108.878 173.588C109.117 173.946 109.457 174.226 109.854 174.391C110.252 174.556 110.689 174.599 111.112 174.515C111.534 174.431 111.921 174.223 112.226 173.918C112.53 173.613 112.737 173.225 112.821 172.802C112.905 172.379 112.862 171.94 112.697 171.542C112.533 171.143 112.254 170.803 111.896 170.563C111.538 170.324 111.117 170.196 110.687 170.196C110.11 170.196 109.556 170.426 109.148 170.834C108.74 171.243 108.511 171.798 108.511 172.376Z" fill="#263238"/>
<path d="M131.925 169.647C131.889 169.886 131.768 170.104 131.584 170.261C131.4 170.417 131.166 170.502 130.925 170.499L110.08 170.189L90.5708 170.69C90.3295 170.693 90.0954 170.608 89.9116 170.451C89.7277 170.295 89.6065 170.077 89.5704 169.838C89.5152 169.572 89.5638 169.295 89.7061 169.064C89.8484 168.832 90.0737 168.665 90.3357 168.595L100.996 166.334C102.099 166.109 103.222 165.994 104.347 165.993H115.803C116.927 165.994 118.048 166.108 119.149 166.334L131.155 168.424C131.414 168.492 131.638 168.656 131.781 168.883C131.924 169.11 131.976 169.384 131.925 169.647Z" fill="#263238"/>
<path d="M114.468 146.671H106.749V165.974H114.468V146.671Z" fill="#263238"/>
<path d="M113.363 137.69H107.86V146.668H113.363V137.69Z" fill="#003ECB"/>
<path opacity="0.2" d="M113.363 137.69H107.86V146.668H113.363V137.69Z" fill="black"/>
<path opacity="0.5" d="M113.363 137.69H107.86V146.668H113.363V137.69Z" fill="black"/>
<path opacity="0.5" d="M107.86 140.327L113.363 141.716V137.69H107.86V140.327Z" fill="black"/>
<path d="M92.0215 117.379H89.2252V129.334H92.0215V117.379Z" fill="#003ECB"/>
<path opacity="0.5" d="M92.0215 117.379H89.2252V129.334H92.0215V117.379Z" fill="black"/>
<path d="M106.043 137.693V89.1109C106.043 88.1378 106.25 87.1759 106.651 86.2897C107.052 85.4035 107.638 84.6136 108.369 83.973L112.066 80.7298C113.312 79.6377 114.912 79.0372 116.568 79.0405H123.366L129.869 85.998V137.693H106.043Z" fill="#003ECB"/>
<path d="M86.1589 127.637H116.623V137.692H81.1966C80.5613 137.691 79.9375 137.522 79.3884 137.202C78.8393 136.881 78.3844 136.422 78.0696 135.869C77.7549 135.316 77.5914 134.689 77.5959 134.052C77.6004 133.416 77.7726 132.792 78.0951 132.243C78.9237 130.839 80.1032 129.676 81.5173 128.868C82.9314 128.061 84.5312 127.636 86.1589 127.637Z" fill="#003ECB"/>
<path opacity="0.7" d="M129.88 86.001V137.696H81.1966C80.5613 137.695 79.9375 137.526 79.3884 137.206C78.8393 136.885 78.3844 136.426 78.0696 135.873C77.7549 135.32 77.5914 134.693 77.5959 134.057C77.6004 133.42 77.7726 132.796 78.0951 132.247C78.9221 130.845 80.0991 129.683 81.5104 128.876C82.9217 128.068 84.5186 127.642 86.1439 127.641H101.476C102.685 127.641 103.844 127.16 104.699 126.303C105.553 125.447 106.033 124.285 106.033 123.074V89.1088C106.033 88.1364 106.24 87.1751 106.641 86.2897C107.042 85.4043 107.628 84.6153 108.359 83.9759L112.056 80.7327C113.301 79.6386 114.902 79.0379 116.558 79.0435H123.356L129.88 86.001Z" fill="white"/>
<path d="M110.481 137.693V89.1109C110.481 88.1379 110.689 87.1763 111.09 86.2903C111.492 85.4043 112.077 84.6142 112.807 83.973L116.504 80.7298C117.75 79.6377 119.35 79.0372 121.006 79.0405H124.858C125.788 79.0403 126.709 79.231 127.563 79.6008C128.418 79.9707 129.187 80.5118 129.825 81.191L132.481 84.0281C133.671 85.2935 134.333 86.9665 134.332 88.7049V132.49C134.332 133.173 134.198 133.85 133.937 134.481C133.676 135.112 133.293 135.686 132.811 136.169C132.329 136.652 131.757 137.036 131.127 137.297C130.497 137.559 129.822 137.693 129.14 137.693H110.481Z" fill="#003ECB"/>
<path opacity="0.5" d="M110.481 137.693V89.1109C110.481 88.1379 110.689 87.1763 111.09 86.2903C111.492 85.4043 112.077 84.6142 112.807 83.973L116.504 80.7298C117.75 79.6377 119.35 79.0372 121.006 79.0405H124.858C125.788 79.0403 126.709 79.231 127.563 79.6008C128.418 79.9707 129.187 80.5118 129.825 81.191L132.481 84.0281C133.671 85.2935 134.333 86.9665 134.332 88.7049V132.49C134.332 133.173 134.198 133.85 133.937 134.481C133.676 135.112 133.293 135.686 132.811 136.169C132.329 136.652 131.757 137.036 131.127 137.297C130.497 137.559 129.822 137.693 129.14 137.693H110.481Z" fill="white"/>
<path d="M100.12 120.928C93.9658 118.778 87.2661 118.778 81.1115 120.928C80.4942 121.163 79.8126 121.162 79.1958 120.926C78.579 120.691 78.0699 120.237 77.7649 119.65C77.1946 118.442 77.96 116.878 79.5107 116.332C86.6978 113.815 94.5241 113.815 101.711 116.332C103.262 116.873 104.027 118.442 103.457 119.65C103.151 120.234 102.644 120.685 102.03 120.921C101.415 121.156 100.737 121.159 100.12 120.928Z" fill="#003ECB"/>
<path opacity="0.7" d="M100.12 120.928C93.9658 118.778 87.2661 118.778 81.1115 120.928C80.4942 121.163 79.8126 121.162 79.1958 120.926C78.579 120.691 78.0699 120.237 77.7649 119.65C77.1946 118.442 77.96 116.878 79.5107 116.332C86.6978 113.815 94.5241 113.815 101.711 116.332C103.262 116.873 104.027 118.442 103.457 119.65C103.151 120.234 102.644 120.685 102.03 120.921C101.415 121.156 100.737 121.159 100.12 120.928Z" fill="white"/>
<path d="M135.496 28.0014L149.253 27.861C149.743 27.8611 150.213 27.6682 150.562 27.3241C150.911 26.9799 151.111 26.512 151.119 26.0214V11.8808C151.129 11.7925 151.129 11.7034 151.119 11.6151C151.05 11.1774 150.826 10.7792 150.488 10.4937C150.15 10.2082 149.72 10.0547 149.278 10.0612L118.618 10.2467C118.128 10.2467 117.658 10.4404 117.31 10.7858C116.961 11.1311 116.763 11.6003 116.757 12.0913V26.2269C116.748 26.3152 116.748 26.4043 116.757 26.4926C116.826 26.9303 117.05 27.3285 117.388 27.614C117.727 27.8995 118.156 28.0531 118.598 28.0465H131.044L133.51 35.786L135.496 28.0014Z" fill="white"/>
<path d="M133.552 36.6738L130.876 28.2776H118.615C118.337 28.2924 118.06 28.2492 117.8 28.1506C117.54 28.052 117.304 27.9003 117.105 27.705C116.907 27.5098 116.752 27.2754 116.649 27.0167C116.546 26.758 116.499 26.4807 116.509 26.2024V12.0719C116.518 11.5173 116.742 10.9881 117.135 10.5968C117.527 10.2056 118.056 9.98304 118.61 9.97659L149.279 9.79112C149.782 9.78604 150.269 9.9619 150.653 10.2867C151.037 10.6114 151.291 11.0635 151.37 11.5606C151.38 11.6623 151.38 11.7647 151.37 11.8663V26.0019C151.36 26.5565 151.134 27.0851 150.741 27.4755C150.347 27.8658 149.818 28.087 149.264 28.0922L135.693 28.2275L133.552 36.6738ZM131.241 27.7764L133.492 34.8592L135.308 27.7513L149.259 27.611C149.684 27.611 150.092 27.4432 150.395 27.1439C150.697 26.8445 150.87 26.4379 150.875 26.0119V11.8814C150.883 11.8047 150.883 11.7275 150.875 11.6508C150.815 11.2741 150.622 10.9317 150.331 10.686C150.04 10.4402 149.67 10.3077 149.289 10.3124L118.64 10.5029C118.215 10.5029 117.808 10.6709 117.506 10.9703C117.204 11.2698 117.033 11.6765 117.029 12.1019V26.2325C117.019 26.309 117.019 26.3865 117.029 26.4631C117.088 26.8393 117.28 27.1817 117.57 27.4275C117.861 27.6733 118.23 27.806 118.61 27.8014L131.241 27.7764Z" fill="#003ECB"/>
<path d="M137.146 13.0854H123.309V13.5867H137.146V13.0854Z" fill="#003ECB"/>
<path d="M148.723 13.0854H140.374V13.5867H148.723V13.0854Z" fill="#003ECB"/>
<path d="M127.216 16.7842H119.637V17.2854H127.216V16.7842Z" fill="#003ECB"/>
<path d="M148.2 16.7842H129.916V17.2854H148.2V16.7842Z" fill="#003ECB"/>
<path d="M138.856 20.4805H119.597V20.9817H138.856V20.4805Z" fill="#003ECB"/>
<path d="M148.16 20.4805H141.867V20.9817H148.16V20.4805Z" fill="#003ECB"/>
<path d="M124.68 24.1792H119.678V24.6805H124.68V24.1792Z" fill="#003ECB"/>
<path d="M153.938 30.2677L174.873 30.0822C175.315 30.0758 175.744 30.2296 176.081 30.5151C176.418 30.8007 176.641 31.1988 176.709 31.6361C176.716 31.7245 176.716 31.8134 176.709 31.9018L176.684 46.0374C176.677 46.528 176.478 46.9964 176.13 47.3415C175.782 47.6866 175.313 47.8807 174.823 47.882L161.557 48.0224C158.71 52.1076 154.003 52.7543 154.003 52.7543C154.003 52.7543 156.659 50.0525 157.145 48.0474H153.933C153.491 48.053 153.062 47.899 152.724 47.6137C152.386 47.3284 152.162 46.9308 152.092 46.4935C152.087 46.405 152.087 46.3163 152.092 46.2278V32.0923C152.104 31.6077 152.303 31.1466 152.647 30.8062C152.992 30.4658 153.454 30.2727 153.938 30.2677Z" fill="white"/>
<path d="M153.287 53.1103L153.787 52.584C153.812 52.5589 156.128 50.1829 156.789 48.3082H153.912C153.41 48.3141 152.923 48.1385 152.54 47.8135C152.157 47.4884 151.903 47.0358 151.826 46.5387C151.816 46.4371 151.816 46.3347 151.826 46.233V32.1024C151.835 31.5478 152.06 31.0187 152.452 30.6274C152.845 30.2361 153.374 30.0136 153.927 30.0072L174.862 29.8217C175.138 29.8136 175.413 29.8614 175.67 29.9623C175.927 30.0632 176.161 30.2151 176.359 30.4089C176.556 30.6027 176.712 30.8344 176.817 31.0901C176.923 31.3458 176.976 31.6202 176.973 31.8969L176.948 46.0325C176.938 46.587 176.712 47.1157 176.319 47.506C175.925 47.8964 175.396 48.1176 174.842 48.1227L161.701 48.2581C159.824 50.7561 157.074 52.4501 154.002 53L153.287 53.1103ZM157.439 47.8019L157.364 48.1127C157.004 49.6165 155.528 51.426 154.708 52.3433C157.376 51.6717 159.73 50.0954 161.371 47.8821L161.446 47.7769L174.837 47.6365C175.048 47.6378 175.257 47.5975 175.452 47.5179C175.648 47.4382 175.825 47.3208 175.975 47.1723C176.125 47.0238 176.245 46.8472 176.327 46.6525C176.409 46.4578 176.452 46.2488 176.453 46.0375L176.478 31.9069C176.483 31.8302 176.483 31.7531 176.478 31.6764C176.42 31.2997 176.228 30.9567 175.937 30.7107C175.647 30.4647 175.277 30.3323 174.897 30.338L153.957 30.5235C153.532 30.5221 153.123 30.6895 152.82 30.9891C152.518 31.2887 152.345 31.6961 152.341 32.1225V46.253C152.336 46.3298 152.336 46.4068 152.341 46.4836C152.401 46.8594 152.594 47.2012 152.884 47.4468C153.174 47.6924 153.542 47.8255 153.922 47.822L157.439 47.8019Z" fill="#003ECB"/>
<path d="M162.513 36.8047H154.934V37.3059H162.513V36.8047Z" fill="#003ECB"/>
<path d="M171.133 33.103H157.296V33.6043H171.133V33.103Z" fill="#003ECB"/>
<path d="M173.599 36.8047H163.904V37.3059H173.599V36.8047Z" fill="#003ECB"/>
<path d="M172.843 40.5039H153.584V41.0052H172.843V40.5039Z" fill="#003ECB"/>
<path d="M158.665 44.2026H153.663V44.7039H158.665V44.2026Z" fill="#003ECB"/>
<path d="M109.917 45.8598L108.706 49.7696L107.115 45.7896C105.154 45.3894 103.414 44.2677 102.238 42.6457C101.062 41.0237 100.534 39.019 100.76 37.0267C100.986 35.0344 101.948 33.199 103.457 31.8823C104.966 30.5656 106.912 29.863 108.913 29.9132C110.913 29.9633 112.822 30.7624 114.264 32.153C115.705 33.5436 116.575 35.4249 116.701 37.426C116.827 39.4271 116.2 41.4029 114.944 42.964C113.688 44.5251 111.895 45.5582 109.917 45.8598Z" fill="white"/>
<path d="M108.738 50.5174L106.937 46.006C104.931 45.5633 103.162 44.3881 101.974 42.7095C100.785 41.0308 100.264 38.969 100.51 36.9258C100.756 34.8827 101.753 33.0047 103.306 31.6578C104.859 30.311 106.857 29.5918 108.91 29.6405C110.963 29.6892 112.924 30.5022 114.412 31.9212C115.9 33.3401 116.807 35.2632 116.956 37.3158C117.106 39.3683 116.487 41.4031 115.221 43.0235C113.955 44.644 112.133 45.7341 110.108 46.0812L108.738 50.5174ZM108.708 30.1311C106.782 30.132 104.925 30.8496 103.497 32.1446C102.07 33.4396 101.173 35.2198 100.981 37.1398C100.789 39.0598 101.316 40.9829 102.459 42.5359C103.602 44.0889 105.28 45.1612 107.167 45.5449L107.302 45.5699L108.677 49.0186L109.723 45.6351L109.878 45.61C111.813 45.3123 113.564 44.2938 114.781 42.7582C115.999 41.2226 116.593 39.2831 116.445 37.3274C116.297 35.3718 115.418 33.5441 113.984 32.2099C112.549 30.8757 110.665 30.1333 108.708 30.1311Z" fill="#003ECB"/>
<path d="M109.531 36.6931C109.576 36.1918 109.141 35.8961 108.505 35.8961C108.18 35.8968 107.861 35.9794 107.576 36.1361C107.291 36.2929 107.05 36.5189 106.875 36.7933L105.114 35.7908C105.869 34.683 107.115 33.9512 108.961 33.9512C110.877 33.9512 112.167 34.7682 112.037 36.2871C111.867 38.2319 109.806 38.5177 109.706 39.6605H107.48C107.635 38.0364 109.451 37.6254 109.531 36.6931ZM107.03 41.6455C107.069 41.28 107.246 40.9434 107.525 40.7047C107.804 40.4661 108.164 40.3436 108.531 40.3623C108.704 40.3438 108.88 40.3641 109.044 40.4218C109.209 40.4794 109.359 40.573 109.484 40.6957C109.608 40.8184 109.704 40.9673 109.764 41.1315C109.824 41.2958 109.847 41.4713 109.831 41.6455C109.788 42.0159 109.607 42.3562 109.324 42.598C109.041 42.8399 108.677 42.9652 108.305 42.9488C108.132 42.9628 107.958 42.9385 107.794 42.8777C107.631 42.8168 107.484 42.7209 107.362 42.5967C107.239 42.4724 107.146 42.3229 107.088 42.1585C107.03 41.9942 107.008 41.8191 107.025 41.6455H107.03Z" fill="#003ECB"/>
<path d="M97.2823 57.5574C97.7326 57.5574 98.0977 57.1916 98.0977 56.7404C98.0977 56.2892 97.7326 55.9233 97.2823 55.9233C96.832 55.9233 96.4669 56.2892 96.4669 56.7404C96.4669 57.1916 96.832 57.5574 97.2823 57.5574Z" fill="white"/>
<path d="M97.2819 57.8114C97.0702 57.8114 96.8632 57.7485 96.6872 57.6306C96.5111 57.5128 96.3739 57.3452 96.2929 57.1492C96.2119 56.9532 96.1907 56.7375 96.232 56.5294C96.2733 56.3214 96.3753 56.1302 96.525 55.9802C96.6747 55.8302 96.8654 55.728 97.0731 55.6866C97.2807 55.6452 97.496 55.6665 97.6916 55.7477C97.8872 55.8289 98.0544 55.9664 98.172 56.1428C98.2897 56.3192 98.3524 56.5266 98.3524 56.7387C98.3524 57.0232 98.2397 57.2961 98.0389 57.4972C97.8381 57.6984 97.5658 57.8114 97.2819 57.8114ZM97.2819 56.1723C97.1689 56.1723 97.0585 56.2059 96.9646 56.269C96.8707 56.332 96.7976 56.4215 96.7546 56.5262C96.7116 56.6309 96.7006 56.7461 96.723 56.8571C96.7454 56.9681 96.8002 57.0699 96.8805 57.1496C96.9607 57.2293 97.0628 57.2833 97.1738 57.3048C97.2847 57.3263 97.3995 57.3142 97.5037 57.2702C97.6078 57.2262 97.6965 57.1522 97.7585 57.0575C97.8206 56.9629 97.8532 56.8519 97.8522 56.7387C97.8509 56.588 97.7902 56.444 97.6834 56.3379C97.5766 56.2318 97.4323 56.1723 97.2819 56.1723Z" fill="#003ECB"/>
<path d="M95.727 53.6328C95.8339 53.7938 95.9054 53.9757 95.9369 54.1664C95.9683 54.3572 95.9588 54.5525 95.9092 54.7393C95.8595 54.9261 95.7708 55.1003 95.6488 55.2501C95.5269 55.3999 95.3745 55.5221 95.2019 55.6084C95.0292 55.6947 94.8402 55.7432 94.6474 55.7508C94.4546 55.7583 94.2624 55.7247 94.0836 55.6521C93.9047 55.5795 93.7433 55.4696 93.6101 55.3298C93.4769 55.1899 93.3749 55.0233 93.3108 54.8409C91.391 55.4219 89.3235 55.2596 87.5174 54.386C85.7114 53.5125 84.2984 51.9914 83.5581 50.1237C82.8178 48.2561 82.8042 46.178 83.52 44.3008C84.2357 42.4236 85.6287 40.884 87.4232 39.9868C89.2177 39.0896 91.2829 38.9001 93.2101 39.4559C95.1374 40.0116 96.7862 41.2721 97.8302 42.9879C98.8743 44.7036 99.2375 46.7496 98.848 48.7209C98.4585 50.6922 97.3447 52.4452 95.727 53.6328Z" fill="white"/>
<path d="M94.5912 55.996C94.2999 55.9945 94.0144 55.9147 93.7645 55.7648C93.5146 55.6149 93.3095 55.4004 93.1705 55.1439C92.461 55.3356 91.7294 55.4333 90.9945 55.4346C89.0456 55.4314 87.1609 54.7356 85.6758 53.4709C84.1907 52.2062 83.2014 50.4547 82.884 48.5278C82.5665 46.6009 82.9414 44.6237 83.9421 42.9478C84.9427 41.2719 86.5042 40.006 88.3487 39.3752C90.1932 38.7445 92.2012 38.7899 94.0155 39.5032C95.8298 40.2166 97.3327 41.5517 98.257 43.2711C99.1813 44.9904 99.4669 46.9826 99.0631 48.8932C98.6594 50.8038 97.5924 52.5089 96.0519 53.7053C96.1494 53.9176 96.2005 54.1483 96.202 54.382C96.2007 54.8096 96.0305 55.2194 95.7287 55.5218C95.4269 55.8242 95.018 55.9947 94.5912 55.996ZM93.4757 54.5323L93.5557 54.7579C93.612 54.9027 93.6979 55.034 93.8079 55.1435C93.9178 55.253 94.0495 55.3382 94.1943 55.3936C94.3391 55.449 94.4939 55.4735 94.6488 55.4653C94.8036 55.4572 94.955 55.4167 95.0932 55.3463C95.2314 55.276 95.3535 55.1775 95.4514 55.0571C95.5493 54.9366 95.621 54.797 95.6619 54.6471C95.7027 54.4973 95.7118 54.3405 95.6885 54.1869C95.6652 54.0333 95.6101 53.8863 95.5267 53.7554L95.3966 53.5599L95.5867 53.4195C97.1573 52.2692 98.2397 50.5699 98.6196 48.658C98.9995 46.746 98.6492 44.7609 97.6381 43.0954C96.6269 41.4299 95.0286 40.2056 93.1596 39.6647C91.2905 39.1238 89.2869 39.3058 87.5453 40.1746C85.8037 41.0434 84.4512 42.5358 83.7553 44.3563C83.0595 46.1768 83.0711 48.1927 83.7879 50.005C84.5047 51.8173 85.8743 53.294 87.6258 54.1426C89.3773 54.9912 91.3829 55.15 93.2456 54.5875L93.4757 54.5323Z" fill="#003ECB"/>
<path d="M91.8297 45.8088C91.8747 45.3075 91.4395 45.0118 90.8042 45.0118C90.4791 45.0125 90.1595 45.0951 89.8745 45.2519C89.5896 45.4086 89.3485 45.6346 89.1734 45.909L87.4126 44.9065C88.168 43.7987 89.4135 43.0669 91.2594 43.0669C93.1753 43.0669 94.4659 43.884 94.3359 45.4028C94.1658 47.3477 92.1048 47.6334 92.0048 48.7763H89.7937C89.9338 47.1522 91.7496 46.7411 91.8297 45.8088ZM89.3285 50.7613C89.3677 50.3957 89.545 50.0591 89.8241 49.8204C90.1031 49.5818 90.4628 49.4593 90.8292 49.478C91.0028 49.4595 91.1783 49.4798 91.3432 49.5375C91.508 49.5951 91.658 49.6887 91.7824 49.8114C91.9068 49.9341 92.0025 50.083 92.0625 50.2472C92.1226 50.4115 92.1456 50.587 92.1298 50.7613C92.0872 51.1316 91.906 51.4719 91.6229 51.7138C91.3398 51.9556 90.9758 52.0809 90.6041 52.0645C90.4307 52.0785 90.2563 52.0542 90.0932 51.9934C89.9301 51.9326 89.7823 51.8366 89.6602 51.7124C89.5382 51.5881 89.4447 51.4386 89.3866 51.2743C89.3284 51.1099 89.3069 50.9348 89.3235 50.7613H89.3285Z" fill="#003ECB"/>
</svg>
