<svg width="24" height="24" viewBox="0 0 24 24" fill="none" xmlns="http://www.w3.org/2000/svg">
<path d="M12.9273 12.855C12.6776 13.1129 12.3765 13.3198 12.042 13.4632C11.7074 13.6067 11.3463 13.6839 10.9801 13.6901C10.6139 13.6963 10.2501 13.6315 9.91055 13.4994C9.57096 13.3674 9.26247 13.1709 9.0035 12.9216C8.74452 12.6724 8.54036 12.3755 8.40319 12.0486C8.26602 11.7217 8.19866 11.3716 8.20512 11.0192C8.21158 10.6667 8.29174 10.3191 8.4408 9.99713C8.58986 9.67513 8.80478 9.38533 9.07273 9.14501M16.4 16.1975C14.846 17.3376 12.9537 17.9693 11 18C4.63636 18 1 11 1 11C2.13081 8.97167 3.69921 7.19955 5.6 5.80252L16.4 16.1975ZM9.09091 4.21002C9.71667 4.06904 10.3573 3.99857 11 4.00002C17.3636 4.00002 21 11 21 11C20.4482 11.9937 19.7901 12.9292 19.0364 13.7913L9.09091 4.21002Z" stroke="#7B838B" stroke-width="1.5" stroke-linecap="round" stroke-linejoin="round"/>
<path d="M1 1L21 21" stroke="#7B838B" stroke-width="1.5" stroke-linecap="round" stroke-linejoin="round"/>
</svg>
