<svg width="30" height="30" viewBox="0 0 30 30" fill="none" xmlns="http://www.w3.org/2000/svg">
<path d="M29.8093 14.4164C29.5413 14.0498 23.1556 5.43945 14.9999 5.43945C6.84412 5.43945 0.458087 14.0498 0.190371 14.416C-0.0634572 14.7638 -0.0634572 15.2356 0.190371 15.5834C0.458087 15.95 6.84412 24.5603 14.9999 24.5603C23.1556 24.5603 29.5413 15.95 29.8093 15.5837C30.0635 15.2359 30.0635 14.7638 29.8093 14.4164ZM14.9999 22.5823C8.99228 22.5823 3.78909 16.8675 2.24883 14.9992C3.7871 13.1293 8.97939 7.41746 14.9999 7.41746C21.0071 7.41746 26.21 13.1313 27.7509 15.0006C26.2126 16.8704 21.0203 22.5823 14.9999 22.5823Z" fill="#7B838B"/>
<path d="M15.0005 9.06543C11.7285 9.06543 9.06641 11.7275 9.06641 14.9995C9.06641 18.2715 11.7285 20.9336 15.0005 20.9336C18.2725 20.9336 20.9346 18.2715 20.9346 14.9995C20.9346 11.7275 18.2725 9.06543 15.0005 9.06543ZM15.0005 18.9555C12.819 18.9555 11.0445 17.1809 11.0445 14.9995C11.0445 12.8181 12.8191 11.0435 15.0005 11.0435C17.1819 11.0435 18.9565 12.8181 18.9565 14.9995C18.9565 17.1809 17.1819 18.9555 15.0005 18.9555Z" fill="#7B838B"/>
</svg>
