<svg width="52" height="52" viewBox="0 0 52 52" fill="none" xmlns="http://www.w3.org/2000/svg">
<g clip-path="url(#clip0)">
<path d="M41.8826 25.6339C41.8826 16.956 34.8494 9.92285 26.1715 9.92285C17.4937 9.92285 10.4605 16.956 10.4605 25.6339C10.4605 34.3118 17.4937 41.3449 26.1715 41.3449C26.2636 41.3449 26.3557 41.3449 26.4477 41.3388V29.1136H23.0723V25.1797H26.4477V22.283C26.4477 18.926 28.4975 17.0972 31.4924 17.0972C32.9285 17.0972 34.1621 17.2015 34.518 17.2506V20.761H32.456C30.8296 20.761 30.5105 21.5343 30.5105 22.6697V25.1736H34.4076L33.8982 29.1075H30.5105V40.7374C37.0772 38.8533 41.8826 32.8082 41.8826 25.6339Z" fill="url(#paint0_linear)"/>
</g>
<defs>
<linearGradient id="paint0_linear" x1="26.1715" y1="9.92285" x2="26.1715" y2="41.3449" gradientUnits="userSpaceOnUse">
<stop stop-color="white"/>
</linearGradient>
<clipPath id="clip0">
<rect width="31.4221" height="31.4221" fill="white" transform="translate(10.4605 9.92285)"/>
</clipPath>
</defs>
</svg>
