<svg width="28" height="28" viewBox="0 0 28 28" fill="none" xmlns="http://www.w3.org/2000/svg">
<path d="M16.3332 2.33337H6.99984C6.381 2.33337 5.78751 2.57921 5.34992 3.01679C4.91234 3.45438 4.6665 4.04787 4.6665 4.66671V23.3334C4.6665 23.9522 4.91234 24.5457 5.34992 24.9833C5.78751 25.4209 6.381 25.6667 6.99984 25.6667H20.9998C21.6187 25.6667 22.2122 25.4209 22.6498 24.9833C23.0873 24.5457 23.3332 23.9522 23.3332 23.3334V9.33337L16.3332 2.33337Z" stroke="#003ECB" stroke-width="2.2" stroke-linecap="round" stroke-linejoin="round"/>
<path d="M16.3335 2.33337V9.33338H23.3335" stroke="#003ECB" stroke-width="2.2" stroke-linecap="round" stroke-linejoin="round"/>
<path d="M18.6668 15.1666H9.3335" stroke="#003ECB" stroke-width="2.2" stroke-linecap="round" stroke-linejoin="round"/>
<path d="M18.6668 19.8334H9.3335" stroke="#003ECB" stroke-width="2.2" stroke-linecap="round" stroke-linejoin="round"/>
<path d="M11.6668 10.5H10.5002H9.3335" stroke="#003ECB" stroke-width="2.2" stroke-linecap="round" stroke-linejoin="round"/>
</svg>
