<svg width="20" height="20" viewBox="0 0 20 20" fill="none" xmlns="http://www.w3.org/2000/svg">
<path d="M11.6663 1.66699H4.99967C4.55765 1.66699 4.13372 1.84259 3.82116 2.15515C3.5086 2.46771 3.33301 2.89163 3.33301 3.33366V16.667C3.33301 17.109 3.5086 17.5329 3.82116 17.8455C4.13372 18.1581 4.55765 18.3337 4.99967 18.3337H14.9997C15.4417 18.3337 15.8656 18.1581 16.1782 17.8455C16.4907 17.5329 16.6663 17.109 16.6663 16.667V6.66699L11.6663 1.66699Z" stroke="white" stroke-width="1.2" stroke-linecap="round" stroke-linejoin="round"/>
<path d="M11.667 1.66699V6.66699H16.667" stroke="white" stroke-width="1.2" stroke-linecap="round" stroke-linejoin="round"/>
<path d="M13.3337 10.833H6.66699" stroke="white" stroke-width="1.2" stroke-linecap="round" stroke-linejoin="round"/>
<path d="M13.3337 14.167H6.66699" stroke="white" stroke-width="1.2" stroke-linecap="round" stroke-linejoin="round"/>
<path d="M8.33366 7.5H7.50033H6.66699" stroke="white" stroke-width="1.2" stroke-linecap="round" stroke-linejoin="round"/>
</svg>
