<svg width="38" height="38" viewBox="0 0 38 38" fill="none" xmlns="http://www.w3.org/2000/svg">
<rect x="0.8" y="0.8" width="36.4" height="36.4" rx="3.2" stroke="#1B5AEC" stroke-width="1.6"/>
<path d="M22.5003 14.5L26.0003 11M28.0003 9L26.0003 11L28.0003 9ZM18.3903 18.61C18.9066 19.1195 19.3171 19.726 19.598 20.3948C19.879 21.0635 20.0249 21.7813 20.0273 22.5066C20.0297 23.232 19.8887 23.9507 19.6122 24.6213C19.3357 25.2919 18.9293 25.9012 18.4164 26.4141C17.9035 26.9271 17.2942 27.3334 16.6236 27.6099C15.953 27.8864 15.2343 28.0275 14.5089 28.025C13.7835 28.0226 13.0658 27.8767 12.3971 27.5958C11.7283 27.3148 11.1217 26.9043 10.6123 26.388C9.6104 25.3507 9.05604 23.9614 9.06857 22.5193C9.0811 21.0772 9.65953 19.6977 10.6793 18.678C11.699 17.6583 13.0785 17.0798 14.5206 17.0673C15.9627 17.0548 17.352 17.6091 18.3893 18.611L18.3903 18.61ZM18.3903 18.61L22.5003 14.5L18.3903 18.61ZM22.5003 14.5L25.5003 17.5L29.0003 14L26.0003 11L22.5003 14.5Z" stroke="#003ECB" stroke-width="2" stroke-linecap="round" stroke-linejoin="round"/>
</svg>
