<svg width="34" height="33" viewBox="0 0 34 33" fill="none" xmlns="http://www.w3.org/2000/svg">
<g filter="url(#filter0_dd)">
<path fill-rule="evenodd" clip-rule="evenodd" d="M17.0619 26.5C23.7505 26.5 29.1727 21.1274 29.1727 14.5C29.1727 7.87258 23.7505 2.5 17.0619 2.5C10.3733 2.5 4.95117 7.87258 4.95117 14.5C4.95117 21.1274 10.3733 26.5 17.0619 26.5Z" fill="white"/>
</g>
<path d="M17.0621 23.8327C22.2643 23.8327 26.4816 19.654 26.4816 14.4993C26.4816 9.34469 22.2643 5.16602 17.0621 5.16602C11.8598 5.16602 7.64258 9.34469 7.64258 14.4993C7.64258 19.654 11.8598 23.8327 17.0621 23.8327Z" fill="url(#paint0_linear)"/>
<path d="M21.6608 11.543L15.3171 17.8287L12.4336 14.9715" stroke="white" stroke-linecap="round" stroke-linejoin="round"/>
<defs>
<filter id="filter0_dd" x="0.951172" y="0.5" width="32.2215" height="32" filterUnits="userSpaceOnUse" color-interpolation-filters="sRGB">
<feFlood flood-opacity="0" result="BackgroundImageFix"/>
<feColorMatrix in="SourceAlpha" type="matrix" values="0 0 0 0 0 0 0 0 0 0 0 0 0 0 0 0 0 0 127 0"/>
<feOffset dy="2"/>
<feGaussianBlur stdDeviation="2"/>
<feColorMatrix type="matrix" values="0 0 0 0 0.196487 0 0 0 0 0.196487 0 0 0 0 0.279476 0 0 0 0.06 0"/>
<feBlend mode="multiply" in2="BackgroundImageFix" result="effect1_dropShadow"/>
<feColorMatrix in="SourceAlpha" type="matrix" values="0 0 0 0 0 0 0 0 0 0 0 0 0 0 0 0 0 0 127 0"/>
<feOffset dy="2"/>
<feGaussianBlur stdDeviation="1"/>
<feColorMatrix type="matrix" values="0 0 0 0 0.196487 0 0 0 0 0.196487 0 0 0 0 0.279476 0 0 0 0.06 0"/>
<feBlend mode="multiply" in2="effect1_dropShadow" result="effect2_dropShadow"/>
<feBlend mode="normal" in="SourceGraphic" in2="effect2_dropShadow" result="shape"/>
</filter>
<linearGradient id="paint0_linear" x1="16.7545" y1="-3.25312" x2="-1.30192" y2="14.97" gradientUnits="userSpaceOnUse">
<stop stop-color="#91B9EC"/>
<stop offset="1" stop-color="#2F80ED"/>
</linearGradient>
</defs>
</svg>
