<svg width="52" height="52" viewBox="0 0 52 52" fill="none" xmlns="http://www.w3.org/2000/svg">
<g clip-path="url(#clip0)">
<path d="M31.9673 12.4033H19.832C15.8824 12.4033 12.6693 15.6164 12.6693 19.566V31.7015C12.6693 35.6509 15.8824 38.864 19.832 38.864H31.9675C35.9169 38.864 39.13 35.6509 39.13 31.7015V19.566C39.13 15.6164 35.9169 12.4033 31.9673 12.4033V12.4033ZM25.8997 32.8688C21.9101 32.8688 18.6645 29.6232 18.6645 25.6336C18.6645 21.6441 21.9101 18.3985 25.8997 18.3985C29.8892 18.3985 33.1348 21.6441 33.1348 25.6336C33.1348 29.6232 29.8892 32.8688 25.8997 32.8688ZM33.3078 20.1048C32.1288 20.1048 31.1699 19.1459 31.1699 17.9669C31.1699 16.7879 32.1288 15.8288 33.3078 15.8288C34.4868 15.8288 35.4459 16.7879 35.4459 17.9669C35.4459 19.1459 34.4868 20.1048 33.3078 20.1048Z" fill="url(#paint0_linear)"/>
<path d="M25.8998 19.9497C22.7658 19.9497 20.2159 22.4994 20.2159 25.6336C20.2159 28.7676 22.7658 31.3175 25.8998 31.3175C29.0339 31.3175 31.5837 28.7676 31.5837 25.6336C31.5837 22.4994 29.0339 19.9497 25.8998 19.9497Z" fill="url(#paint1_linear)"/>
<path d="M33.3079 17.3804C32.9845 17.3804 32.7212 17.6436 32.7212 17.967C32.7212 18.2904 32.9845 18.5537 33.3079 18.5537C33.6315 18.5537 33.8947 18.2906 33.8947 17.967C33.8947 17.6434 33.6315 17.3804 33.3079 17.3804Z" fill="url(#paint2_linear)"/>
</g>
<defs>
<linearGradient id="paint0_linear" x1="25.8997" y1="12.4033" x2="25.8997" y2="38.864" gradientUnits="userSpaceOnUse">
<stop stop-color="white"/>
</linearGradient>
<linearGradient id="paint1_linear" x1="25.8998" y1="19.9497" x2="25.8998" y2="31.3175" gradientUnits="userSpaceOnUse">
<stop stop-color="white"/>
</linearGradient>
<linearGradient id="paint2_linear" x1="33.308" y1="17.3804" x2="33.308" y2="18.5537" gradientUnits="userSpaceOnUse">
<stop stop-color="white"/>
</linearGradient>
<clipPath id="clip0">
<rect width="26.4607" height="26.4607" fill="white" transform="translate(12.6693 12.4033)"/>
</clipPath>
</defs>
</svg>
