<?xml version="1.0"?>
<svg xmlns="http://www.w3.org/2000/svg" xmlns:xlink="http://www.w3.org/1999/xlink" xmlns:svgjs="http://svgjs.com/svgjs" version="1.1" width="512" height="512" x="0" y="0" viewBox="0 0 64 64" style="enable-background:new 0 0 512 512" xml:space="preserve" class=""><g><g xmlns="http://www.w3.org/2000/svg" id="Layer_18" data-name="Layer 18"><path d="M20,39h6a1,1,0,0,0,1-1V34a1,1,0,0,0-1-1H20a1,1,0,0,0-1,1v4A1,1,0,0,0,20,39Zm1-4h4v2H21Z" fill="#ffffff" data-original="#000000" style="" class=""/><path d="M32,1A31,31,0,1,0,63,32,31,31,0,0,0,32,1Zm0,60A29,29,0,1,1,61,32,29,29,0,0,1,32,61Z" fill="#ffffff" data-original="#000000" style="" class=""/><path d="M32,7a24.82,24.82,0,0,0-14.88,4.91,1,1,0,0,0-.4.73,1,1,0,0,0,.29.78L50.58,47a1,1,0,0,0,.71.3h.07a1,1,0,0,0,.73-.4A25,25,0,0,0,32,7Zm7,20.57,8-4.8V40.59l-8-8Zm-2,3L29.41,23H35a2,2,0,0,1,2,2ZM51.15,44.74,49,42.59V21a1,1,0,0,0-1.51-.86L39,25.23V25a4,4,0,0,0-4-4H27.41l-8.15-8.15A23,23,0,0,1,51.15,44.74Z" fill="#ffffff" data-original="#000000" style="" class=""/><path d="M13.42,17a1,1,0,0,0-.78-.29,1,1,0,0,0-.73.4,25,25,0,0,0,35,35,1,1,0,0,0,.4-.73,1,1,0,0,0-.29-.78ZM17,25a2,2,0,0,1,.4-1.18L34.59,41H19a2,2,0,0,1-2-2ZM32,55A23,23,0,0,1,12.85,19.26L16,22.39A4,4,0,0,0,15,25V39a4,4,0,0,0,4,4H35a4.07,4.07,0,0,0,1.34-.24l8.4,8.39A22.83,22.83,0,0,1,32,55Z" fill="#ffffff" data-original="#000000" style="" class=""/></g></g></svg>
