<svg width="26" height="26" viewBox="0 0 26 26" fill="none" xmlns="http://www.w3.org/2000/svg">
<path d="M25.2383 24.4766H21.8867V17.0117C21.8867 16.1717 21.2033 15.4883 20.3633 15.4883H19.2308C18.9323 14.1863 18.3382 13.0684 17.491 12.2286C16.9578 11.7 16.3379 11.2961 15.6504 11.0244C17.124 9.75289 18.0857 7.55488 18.0857 5.56898C18.0857 3.76685 17.5844 2.35244 16.5958 1.3652C15.7015 0.472063 14.4581 0 13 0C11.542 0 10.2985 0.472063 9.40418 1.3652C8.41552 2.35244 7.91421 3.76685 7.91421 5.56898C7.91421 7.55483 8.87595 9.75289 10.3496 11.0244C9.6621 11.2961 9.04216 11.7 8.50896 12.2286C7.66177 13.0684 7.06768 14.1864 6.76929 15.4883H5.63672C4.7967 15.4883 4.11328 16.1717 4.11328 17.0117V24.4766H0.761719C0.341047 24.4766 0 24.8176 0 25.2383C0 25.659 0.341047 26 0.761719 26H25.2383C25.659 26 26 25.659 26 25.2383C26 24.8176 25.659 24.4766 25.2383 24.4766ZM13 1.52344C14.1187 1.52344 15.8745 1.89531 16.4052 4.10622C15.6288 4.0075 15.1855 3.78818 14.8385 3.61649C14.4984 3.4482 14.1129 3.25741 13.6424 3.36527C13.2605 3.45282 12.9874 3.66829 12.7234 3.87669C12.2422 4.25648 11.5398 4.8097 9.46512 4.92172C9.72344 1.98336 11.7558 1.52344 13 1.52344ZM9.51437 6.44455C12.1015 6.3083 13.0678 5.54572 13.6673 5.07249C13.7541 5.00393 13.8658 4.91583 13.935 4.87363C13.9961 4.89943 14.0864 4.94406 14.1629 4.98195C14.6105 5.2034 15.3133 5.55095 16.5604 5.65292C16.5405 6.77452 16.1235 8.01851 15.4344 8.99864C14.7312 9.99893 13.8438 10.5727 13 10.5727C12.1562 10.5727 11.2688 9.99893 10.5655 8.99864C10.0356 8.24489 9.66596 7.33484 9.51437 6.44455ZM12.5938 12.1367H13.4062C15.5202 12.1367 17.0622 13.3727 17.6605 15.4883H8.3395C8.9378 13.3727 10.4798 12.1367 12.5938 12.1367ZM5.63672 24.4766V17.0117H20.3633V24.4766H5.63672Z" fill="#003ECB"/>
<path d="M13 21.0742C13.4207 21.0742 13.7617 20.7332 13.7617 20.3125C13.7617 19.8918 13.4207 19.5508 13 19.5508C12.5793 19.5508 12.2383 19.8918 12.2383 20.3125C12.2383 20.7332 12.5793 21.0742 13 21.0742Z" fill="#003ECB"/>
</svg>
