<svg width="89" height="89" viewBox="0 0 89 89" fill="none" xmlns="http://www.w3.org/2000/svg">
<circle cx="45" cy="45" r="40" fill="white"/>
<path d="M44.5 0C19.9237 0 0 19.9233 0 44.5C0 69.0767 19.9237 89 44.5 89C69.0763 89 89 69.0767 89 44.5C89 19.9233 69.0763 0 44.5 0ZM59.8803 46.8588L37.6303 60.7651C37.1801 61.0462 36.6682 61.1875 36.1562 61.1875C35.6925 61.1875 35.228 61.0721 34.8077 60.8385C33.9236 60.3483 33.375 59.4179 33.375 58.4062V30.5938C33.375 29.5821 33.9236 28.6517 34.8077 28.1615C35.6918 27.6686 36.7728 27.6985 37.6303 28.2349L59.8803 42.1412C60.6931 42.6505 61.1875 43.5413 61.1875 44.5C61.1875 45.4587 60.6931 46.3497 59.8803 46.8588Z" fill="#F2994A"/>
</svg>
