<svg width="24" height="24" viewBox="0 0 24 24" fill="none" xmlns="http://www.w3.org/2000/svg">
<g clip-path="url(#clip0)">
<path d="M12 7.96875C14.2005 7.96875 15.9844 6.18488 15.9844 3.98438C15.9844 1.78387 14.2005 0 12 0C9.79949 0 8.01562 1.78387 8.01562 3.98438C8.01562 6.18488 9.79949 7.96875 12 7.96875Z" fill="#F2994A"/>
<path d="M14.928 8.50879C14.0844 9.05662 13.0789 9.37527 12.0003 9.37527C10.9216 9.37527 9.91611 9.05662 9.0725 8.50879C8.13992 8.86518 7.27527 9.39098 6.52344 10.0658L12.0003 12.1196L17.4771 10.0658C16.7253 9.39098 15.8606 8.86513 14.928 8.50879Z" fill="#F2994A"/>
<path d="M20.4375 14.5312H19.9688C19.5804 14.5312 19.2656 14.8461 19.2656 15.2344V17.1094C19.2656 17.4977 19.5804 17.8125 19.9688 17.8125H20.4375C21.3436 17.8125 22.0781 17.078 22.0781 16.1719C22.0781 15.2658 21.3436 14.5312 20.4375 14.5312Z" fill="#F2994A"/>
<path d="M4.0995 10.9817C3.90994 11.1131 3.79688 11.329 3.79688 11.5596V13.125H4.03125C5.19436 13.125 6.14062 14.0713 6.14062 15.2344V17.1094C6.14062 18.2725 5.19436 19.2188 4.03125 19.2188H3.79688V20.7003C3.79688 20.9934 3.9787 21.2557 4.25311 21.3586L11.2969 24V13.3575L4.74689 10.9013C4.53094 10.8202 4.28902 10.8503 4.0995 10.9817Z" fill="#F2994A"/>
<path d="M17.8594 17.1094V15.2344C17.8594 14.0713 18.8056 13.125 19.9688 13.125H20.2031V11.5596C20.2031 11.329 20.0901 11.1131 19.9005 10.9817C19.7109 10.8503 19.469 10.8202 19.2531 10.9013L12.7031 13.3575V24L19.7469 21.3586C20.0213 21.2557 20.2031 20.9934 20.2031 20.7003V19.2188H19.9688C18.8056 19.2188 17.8594 18.2725 17.8594 17.1094Z" fill="#F2994A"/>
<path d="M4.73438 17.1094V15.2344C4.73438 14.8461 4.41956 14.5312 4.03125 14.5312H3.5625C2.65641 14.5312 1.92188 15.2658 1.92188 16.1719C1.92188 17.078 2.65641 17.8125 3.5625 17.8125H4.03125C4.41956 17.8125 4.73438 17.4977 4.73438 17.1094Z" fill="#F2994A"/>
</g>
<defs>
<clipPath id="clip0">
<rect width="24" height="24" fill="white"/>
</clipPath>
</defs>
</svg>
