<svg width="16" height="15" viewBox="0 0 16 15" fill="none" xmlns="http://www.w3.org/2000/svg">
<path fill-rule="evenodd" clip-rule="evenodd" d="M7.78806 0.0464543C7.73165 0.07383 7.65996 0.132334 7.62871 0.176474C7.59749 0.220644 7.07654 1.24634 6.47106 2.45583C5.86555 3.66531 5.36664 4.65838 5.36232 4.66265C5.35798 4.6669 4.23052 4.83084 2.85684 5.02697C1.18868 5.26514 0.322913 5.40115 0.249849 5.43649C0.124909 5.49694 -0.000249631 5.70598 3.73917e-07 5.85378C9.41258e-05 5.90517 0.0317197 5.99674 0.0703143 6.05731C0.108909 6.11784 0.94555 6.9397 1.92957 7.88367C2.91356 8.82761 3.71889 9.61551 3.71914 9.63452C3.71942 9.65353 3.52738 10.774 3.29241 12.1244L2.86521 14.5797L2.92559 14.723C2.96921 14.8266 3.02034 14.8861 3.11009 14.9374C3.35028 15.0748 3.30478 15.0939 5.75777 13.8241L8 12.6634L10.2422 13.8263C12.399 14.9449 12.491 14.9893 12.6563 14.9898C12.8758 14.9906 13.0052 14.9061 13.0802 14.7129L13.1339 14.5745L12.7071 12.1218C12.4724 10.7728 12.2806 9.65353 12.2809 9.63452C12.2811 9.61551 13.0864 8.82761 14.0704 7.88367C15.0545 6.9397 15.8911 6.11784 15.9297 6.05731C15.9683 5.99674 15.9999 5.90517 16 5.85378C16.0003 5.70598 15.8751 5.49694 15.7502 5.43649C15.6771 5.40115 14.8113 5.26514 13.1432 5.02697C11.7695 4.83084 10.642 4.6669 10.6377 4.66265C10.6334 4.65838 10.1344 3.66531 9.52894 2.45583C8.92346 1.24634 8.40235 0.220398 8.37091 0.175951C8.25272 0.00895871 7.98706 -0.0500683 7.78806 0.0464543Z" fill="#003ECB"/>
</svg>
