<svg width="32" height="32" viewBox="0 0 32 32" fill="none" xmlns="http://www.w3.org/2000/svg">
<path d="M15.1033 4.48338C15.4701 3.74021 16.5299 3.74021 16.8967 4.48338L19.8876 10.5425C20.0331 10.8374 20.3143 11.0418 20.6396 11.0894L27.3296 12.0672C28.1495 12.187 28.4763 13.1949 27.8827 13.773L23.0435 18.4864C22.8076 18.7162 22.6999 19.0473 22.7556 19.3718L23.8974 26.0294C24.0376 26.8463 23.18 27.4693 22.4464 27.0835L16.4655 23.9382C16.1741 23.785 15.8259 23.785 15.5346 23.9382L9.55364 27.0835C8.82001 27.4693 7.96246 26.8463 8.10258 26.0294L9.24443 19.3718C9.30009 19.0473 9.19242 18.7162 8.95655 18.4864L4.11735 13.773C3.52376 13.1949 3.85054 12.187 4.67046 12.0672L11.3604 11.0894C11.6857 11.0418 11.9669 10.8374 12.1125 10.5425L15.1033 4.48338Z" fill="#F8CC45"/>
</svg>
