<?xml version="1.0"?>
<svg xmlns="http://www.w3.org/2000/svg" xmlns:xlink="http://www.w3.org/1999/xlink" xmlns:svgjs="http://svgjs.com/svgjs" version="1.1" width="512" height="512" x="0" y="0" viewBox="0 0 480 480" style="enable-background:new 0 0 512 512" xml:space="preserve" class=""><g><path xmlns="http://www.w3.org/2000/svg" d="m240 0c-132.546875 0-240 107.453125-240 240s107.453125 240 240 240 240-107.453125 240-240c-.148438-132.484375-107.515625-239.851562-240-240zm0 464c-123.710938 0-224-100.289062-224-224s100.289062-224 224-224 224 100.289062 224 224c-.140625 123.652344-100.347656 223.859375-224 224zm0 0" fill="#ffffff" data-original="#000000" style="" class=""/><path xmlns="http://www.w3.org/2000/svg" d="m355.0625 168.609375c-2.988281-1.238281-6.429688-.554687-8.71875 1.734375l-50.34375 50.34375v-60.6875c0-4.417969-3.582031-8-8-8h-160c-4.417969 0-8 3.582031-8 8v160c0 4.417969 3.582031 8 8 8h160c4.417969 0 8-3.582031 8-8v-60.6875l50.34375 50.34375c2.289062 2.285156 5.730469 2.972656 8.71875 1.734375s4.9375-4.15625 4.9375-7.390625v-128c0-3.234375-1.949219-6.152344-4.9375-7.390625zm-75.0625 143.390625h-144v-144h144zm64-27.3125-44.6875-44.6875 44.6875-44.6875zm0 0" fill="#ffffff" data-original="#000000" style="" class=""/></g></svg>
