<svg width="52" height="52" viewBox="0 0 52 52" fill="none" xmlns="http://www.w3.org/2000/svg">
<g clip-path="url(#clip0)">
<path d="M35.9942 26.9799C35.4862 26.3384 35.6315 26.053 35.9942 25.4795C36.0007 25.473 40.1942 19.6782 40.6263 17.713L40.6289 17.7117C40.8436 16.9956 40.6289 16.4692 39.5907 16.4692H36.1552C35.2806 16.4692 34.8774 16.9209 34.6613 17.4263C34.6613 17.4263 32.9122 21.6133 30.4377 24.3274C29.639 25.1116 29.2698 25.363 28.8339 25.363C28.6191 25.363 28.2853 25.1116 28.2853 24.3955V17.7117C28.2853 16.8528 28.0404 16.4692 27.3164 16.4692H21.9144C21.3659 16.4692 21.0399 16.8699 21.0399 17.243C21.0399 18.0574 22.2771 18.2446 22.4054 20.5358V25.507C22.4054 26.5963 22.2077 26.7966 21.7691 26.7966C20.6013 26.7966 17.7667 22.5926 16.087 17.7811C15.7479 16.8476 15.4166 16.4705 14.5355 16.4705H11.0987C10.1181 16.4705 9.92038 16.9222 9.92038 17.4276C9.92038 18.3205 11.0882 22.7602 15.3512 28.6257C18.1922 32.6293 22.1933 34.7988 25.833 34.7988C28.0208 34.7988 28.2879 34.317 28.2879 33.4882C28.2879 29.6626 28.0902 29.3012 29.186 29.3012C29.694 29.3012 30.5686 29.5526 32.611 31.4838C34.9454 33.7736 35.3291 34.7988 36.6357 34.7988H40.0712C41.0505 34.7988 41.5467 34.317 41.2613 33.3665C40.608 31.3672 36.1932 27.2549 35.9942 26.9799Z" fill="url(#paint0_linear)"/>
</g>
<defs>
<linearGradient id="paint0_linear" x1="25.6309" y1="16.4692" x2="25.6309" y2="34.7988" gradientUnits="userSpaceOnUse">
<stop stop-color="white"/>
</linearGradient>
<clipPath id="clip0">
<rect width="31.4221" height="31.4221" fill="white" transform="translate(9.92038 9.92285)"/>
</clipPath>
</defs>
</svg>
