<svg width="53" height="52" viewBox="0 0 53 52" fill="none" xmlns="http://www.w3.org/2000/svg">
<path d="M40.248 18.426C39.9157 17.1906 38.9416 16.2167 37.7064 15.8841C35.4497 15.2666 26.4228 15.2666 26.4228 15.2666C26.4228 15.2666 17.3963 15.2666 15.1397 15.8606C13.9282 16.193 12.9304 17.1908 12.598 18.426C12.0042 20.6825 12.0042 25.3622 12.0042 25.3622C12.0042 25.3622 12.0042 30.0655 12.598 32.2984C12.9307 33.5336 13.9044 34.5075 15.1399 34.8402C17.4201 35.4578 26.4232 35.4578 26.4232 35.4578C26.4232 35.4578 35.4497 35.4578 37.7064 34.8638C38.9418 34.5313 39.9157 33.5574 40.2483 32.3221C40.842 30.0655 40.842 25.386 40.842 25.386C40.842 25.386 40.8658 20.6825 40.248 18.426ZM23.5489 29.6854V21.039L31.0552 25.3622L23.5489 29.6854Z" fill="url(#paint0_linear)"/>
<defs>
<linearGradient id="paint0_linear" x1="26.4232" y1="15.2666" x2="26.4232" y2="35.4578" gradientUnits="userSpaceOnUse">
<stop stop-color="white"/>
</linearGradient>
</defs>
</svg>
