<svg width="92" height="92" viewBox="0 0 92 92" fill="none" xmlns="http://www.w3.org/2000/svg">
<g clip-path="url(#clip0)">
<path d="M59.3598 26.9528H42.9926L42.3563 25.158C39.7866 17.9095 32.9078 16.633 32.3438 16.3039V0L35.5752 0.656039C47.2627 3.02827 56.3412 12.082 58.7039 23.7213L59.3598 26.9528Z" fill="#003ECB"/>
<path d="M16.1719 29.6481C16.1719 18.9966 26.8879 16.3503 26.9531 16.3039V0L23.7216 0.656039C9.98919 3.44335 0 15.514 0 29.6481C0 37.8222 3.32512 45.2344 8.69364 50.6029L18.7773 48.1559L20.1236 39.173C17.6832 36.7328 16.1719 33.3637 16.1719 29.6481Z" fill="#FF641A"/>
<path d="M59.3598 32.3438L58.704 35.5745C55.9458 49.1589 43.9283 59.2969 29.6485 59.2969C21.4745 59.2969 14.0624 55.9727 8.69336 50.6036L20.1233 39.1737C22.5634 41.6138 25.9326 43.125 29.6485 43.125C40.5537 43.125 42.7747 32.651 42.9921 32.3438H59.3598Z" fill="#FDE483"/>
<path d="M59.3598 32.3438L58.7039 35.5745C55.9457 49.1589 43.9282 59.2969 29.6484 59.2969V43.125C40.5537 43.125 42.7746 32.651 42.992 32.3438H59.3598Z" fill="#3BA972"/>
<path d="M70.2578 43.4844H86.4297V89.3047H70.2578V43.4844Z" fill="#3BA972"/>
<path d="M48.6953 70.4375H64.8672V89.3047H48.6953V70.4375Z" fill="#003ECB"/>
<path d="M27.1328 65.0469H43.3047V89.3047H27.1328V65.0469Z" fill="#FDE483"/>
<path d="M5.57031 75.8281H21.7422V89.3047H5.57031V75.8281Z" fill="#FF641A"/>
<path d="M0 86.6094H92V92H0V86.6094Z" fill="#61729B"/>
<path d="M46 86.6094H92V92H46V86.6094Z" fill="#47568C"/>
</g>
<defs>
<clipPath id="clip0">
<rect width="92" height="92" fill="white"/>
</clipPath>
</defs>
</svg>
